<?xml version="1.0" encoding="UTF-8"?>
<svg id="Layer_1" data-name="Layer 1" xmlns="http://www.w3.org/2000/svg" version="1.1" viewBox="0 0 452.4812 116">
  <defs>
    <style>
      .cls-1 {
        fill: #fabc21;
      }

      .cls-1, .cls-2, .cls-3, .cls-4, .cls-5, .cls-6 {
        stroke-width: 0px;
      }

      .cls-2 {
        fill: #039edc;
      }

      .cls-3 {
        fill: #009edd;
      }

      .cls-4 {
        fill: #039fdd;
      }

      .cls-5 {
        fill: #fefefe;
      }

      .cls-6 {
        fill: #009edc;
      }
    </style>
  </defs>
  <g>
    <path class="cls-6" d="M102.96643,110.49786c8.88672-15.3905,17.55658-30.90924,26.74939-46.11816,2.43823-4.03394,2.58569-7.20911.06287-11.39404-10.28583-17.06274-19.79474-34.58636-30.22388-51.57037-.26984-.43945-.28778-.92847-.09412-1.41528H34.46069C24.13855,17.63977,13.82001,35.28162,3.48859,52.91595c-1.00677,1.71844-2.0929,3.39038-3.14215,5.08386,8.43158,14.88782,16.84796,29.7843,25.30402,44.6582,2.54675,4.47955,5.20374,8.89642,7.81024,13.34198h68c-.89923-2.21381.54266-3.83429,1.50574-5.50214ZM37.18848,110.7572c-9.922-17.16412-19.96234-34.53296-30.1369-52.13397C16.96619,41.43817,26.83966,24.32428,36.88379,6.91473h60.76642c9.77362,16.91327,19.73651,34.15399,29.86005,51.67285-10.0025,17.32556-20.04034,34.7124-30.1189,52.16962h-60.20288Z"/>
    <path class="cls-6" d="M102.08527,2.78015c-.62231-1.07318-1.73834-1.86005-2.62457-2.78015-.19366.48682-.17572.97583.09412,1.41528,10.42914,16.98401,19.93805,34.50763,30.22388,51.57037,2.52283,4.18494,2.37537,7.36011-.06287,11.39404-9.19281,15.20892-17.86267,30.72766-26.74939,46.11816-.96307,1.66785-2.40497,3.28833-1.50574,5.50214,10.9184-19.15112,21.83685-38.30231,32.78595-57.50732-10.74817-18.64532-21.42438-37.19653-32.16138-55.71252Z"/>
    <path class="cls-5" d="M0,58.30762c-.00232-.08014-.01129-.15802-.01147-.23895.00714-.02338.01691-.04541.02411-.06879-.18402.00006-.36798.00012-.55194.00012.17981.28809.35956.37177.53931.30762Z"/>
    <path class="cls-5" d="M-.01147,58.06866c.00018.08093.00916.15881.01147.23895.11548-.0412.23096-.13116.34644-.3078-.11127.00006-.22253.00006-.3338.00006-.0072.02338-.01697.04541-.02411.06879Z"/>
    <path class="cls-4" d="M91.09253,17.98566h-47.6217c-7.79095,13.49103-15.58734,26.99139-23.46063,40.62494,7.99493,13.82764,15.87372,27.45441,23.58832,40.79724h47.37653c7.85223-13.59576,15.72418-27.22571,23.57178-40.81335-7.88892-13.65881-15.61707-27.03937-23.45428-40.60883ZM89.24561,96.13672h-43.90625c-7.10101-12.27698-14.33313-24.78064-21.70135-37.51965,7.23029-12.52472,14.44379-25.02026,21.68671-37.56683h43.91241c7.17065,12.4281,14.38782,24.93671,21.66992,37.55786-7.25946,12.57709-14.40436,24.95569-21.66144,37.52863Z"/>
    <path class="cls-2" d="M81.56952,33.19305h-28.62488c-4.98511,8.55768-9.9043,17.00208-14.80841,25.42072,5.07947,8.70898,9.9281,17.02216,14.80475,25.3833h28.68286c5.01208-8.61212,9.92267-17.04987,14.80029-25.43091-5.15503-8.8053-10.0957-17.24445-14.85461-25.37311ZM80.15594,35.88373c3.90491,6.67712,7.89893,13.50653,12.34174,21.10345h-23.88898c-3.98785-6.87964-7.95349-13.72107-12.23273-21.10345h23.77997ZM41.12848,58.62006c4.19598-7.19287,8.34027-14.29718,12.72467-21.81293,4.39978,7.54572,8.48834,14.5575,12.70374,21.78699-4.08105,7.00598-8.15967,14.00757-12.70221,21.80579-4.39648-7.52423-8.49866-14.54474-12.7262-21.77985ZM80.05396,81.61639h-23.83301c4.27118-7.39746,8.35803-14.47565,12.4798-21.61426h23.8396c-4.28876,7.42389-8.36267,14.47601-12.48639,21.61426Z"/>
    <path class="cls-1" d="M68.70074,60.00214c-4.12177,7.13861-8.20862,14.2168-12.4798,21.61426h23.83301c4.12372-7.13824,8.19763-14.19037,12.48639-21.61426h-23.8396Z"/>
  </g>
  <g>
    <path class="cls-3" d="M165.53589,79.81442c-2.84766,0-5.48975-.51078-7.92627-1.52916-2.43799-1.01838-4.55518-2.45995-6.35156-4.32576-1.79736-1.86475-3.19434-4.06615-4.19043-6.6042-.99658-2.53805-1.49414-5.30721-1.49414-8.30643s.49756-5.76786,1.49414-8.30538c.99609-2.53805,2.40234-4.73892,4.2168-6.60473,1.81494-1.86422,3.93164-3.30632,6.35156-4.32576,2.41943-1.01838,5.0708-1.52863,7.95312-1.52863,3.06006,0,5.85303.56776,8.37988,1.70171,2.52588,1.13447,4.66113,2.81718,6.40479,5.04707l-4.4834,4.55635c-1.35254-1.57612-2.86475-2.75861-4.53662-3.54693-1.67334-.7878-3.48779-1.18249-5.44434-1.18249-1.95752,0-3.74561.34615-5.36426,1.03791-1.61963.69229-3.0249,1.67321-4.2168,2.94171-1.19238,1.26902-2.11719,2.76864-2.77539,4.49936-.65869,1.7302-.9873,3.63347-.9873,5.70982,0,2.07687.32861,3.98067.9873,5.71034.6582,1.73073,1.58301,3.23034,2.77539,4.49883,1.19189,1.26955,2.59717,2.24994,4.2168,2.94224,1.61865.69229,3.40674,1.03844,5.36426,1.03844,1.95654,0,3.771-.39363,5.44434-1.18302,1.67188-.78727,3.18408-1.98928,4.53662-3.60498l4.4834,4.61492c-1.74365,2.1919-3.87891,3.86459-6.40479,5.01805-2.52686,1.15347-5.3374,1.73073-8.43311,1.73073Z"/>
    <path class="cls-3" d="M193.98462,79.23716h-6.93896v-40.37606h6.93896v40.37606ZM213.84009,61.93306h-20.44238v-6.40211h20.44238v6.40211ZM213.3064,38.8611h6.93896v40.37606h-6.93896v-40.37606Z"/>
    <path class="cls-3" d="M230.28003,79.23716v-40.37606h15.37207c3.30859,0,6.14648.57673,8.5127,1.73073,2.36621,1.15347,4.19043,2.80715,5.47168,4.96054,1.28027,2.15391,1.9209,4.71043,1.9209,7.67113,0,2.96176-.64062,5.50878-1.9209,7.64264-1.28125,2.13386-3.10547,3.76855-5.47168,4.90302s-5.2041,1.70118-8.5127,1.70118h-11.5293l3.0957-3.40341v15.17024h-6.93848ZM237.21851,64.87529l-3.0957-3.57648h11.20898c3.05957,0,5.36426-.71129,6.91211-2.13386s2.32129-3.40341,2.32129-5.94146c0-2.57551-.77344-4.55688-2.32129-5.94093-1.54785-1.38458-3.85254-2.07634-6.91211-2.07634h-11.20898l3.0957-3.69151v23.36059ZM254.72534,79.23716l-9.44727-14.65102h7.41895l9.50098,14.65102h-7.47266Z"/>
    <path class="cls-3" d="M277.94409,79.23716v-15.97756l1.54785,4.61492-16.22656-29.01342h7.41895l13.02344,23.36006h-4.16309l13.13086-23.36006h6.83203l-16.22656,29.01342,1.60156-4.61492v15.97756h-6.93848Z"/>
    <path class="cls-3" d="M314.82593,79.81442c-2.91797,0-5.71094-.45273-8.37988-1.35609s-4.78613-2.06632-6.35156-3.48995l2.40137-5.82537c1.49512,1.26955,3.34473,2.32698,5.55176,3.1723,2.20605.84637,4.46484,1.26955,6.77832,1.26955,1.95703,0,3.54004-.23112,4.75-.69229s2.09961-1.08593,2.66895-1.87531c.56934-.78727.85449-1.68113.85449-2.68157,0-1.2305-.41016-2.2204-1.22754-2.97073-.81934-.74928-1.87793-1.34553-3.17578-1.78771-1.2998-.44218-2.74121-.85587-4.32422-1.24s-3.16699-.83687-4.75-1.35609c-1.58398-.51922-3.02441-1.19146-4.32324-2.01883-1.2998-.82632-2.35742-1.93177-3.17578-3.31635-.81934-1.38405-1.22754-3.15224-1.22754-5.30615,0-2.1919.54199-4.20123,1.62793-6.02799,1.08496-1.82571,2.73926-3.28733,4.96387-4.38328,2.22363-1.09595,5.04395-1.64419,8.45996-1.64419,2.24121,0,4.46484.30815,6.67188.92288,2.20605.61578,4.12695,1.49961,5.76465,2.65361l-2.18848,5.82537c-1.67285-1.0759-3.39844-1.87478-5.17773-2.39347-1.7793-.51922-3.4873-.77883-5.12402-.77883-1.9209,0-3.47852.25064-4.66992.74981-1.19238.50022-2.06445,1.15347-2.61523,1.96131-.55273.80732-.82812,1.7302-.82812,2.76864,0,1.23103.40039,2.2204,1.20117,2.9702s1.84961,1.33656,3.14941,1.75922c1.29883.42371,2.74902.83634,4.34961,1.24,1.60156.40419,3.19336.85639,4.77734,1.35556,1.58301.50022,3.02441,1.15399,4.32324,1.96131s2.34863,1.9038,3.14941,3.28733c.80078,1.38458,1.20117,3.13536,1.20117,5.24917,0,2.15391-.54297,4.14425-1.62793,5.96995-1.08594,1.82676-2.74902,3.28733-4.99121,4.3838-2.24121,1.09542-5.07031,1.64419-8.48633,1.64419Z"/>
    <path class="cls-3" d="M331.53296,79.23716l16.8125-40.37606h6.83203l16.86719,40.37606h-7.25879l-14.46484-36.39592h2.77539l-14.41113,36.39592h-7.15234ZM339.27222,69.89335l1.86816-5.88342h20.17578l1.86816,5.88342h-23.91211Z"/>
    <path class="cls-3" d="M376.79468,79.23716v-40.37606h6.93848v34.03147h19.53516v6.34459h-26.47363Z"/>
    <path class="cls-3" d="M408.76636,79.23716v-40.37606h6.93848v40.37606h-6.93848Z"/>
    <path class="cls-3" d="M437.37573,79.81442c-2.91797,0-5.71094-.45273-8.37988-1.35609s-4.78613-2.06632-6.35156-3.48995l2.40137-5.82537c1.49512,1.26955,3.34473,2.32698,5.55176,3.1723,2.20605.84637,4.46484,1.26955,6.77832,1.26955,1.95703,0,3.54004-.23112,4.75-.69229s2.09961-1.08593,2.66895-1.87531c.56934-.78727.85449-1.68113.85449-2.68157,0-1.2305-.41016-2.2204-1.22754-2.97073-.81934-.74928-1.87793-1.34553-3.17578-1.78771-1.2998-.44218-2.74121-.85587-4.32422-1.24s-3.16699-.83687-4.75-1.35609c-1.58398-.51922-3.02441-1.19146-4.32324-2.01883-1.2998-.82632-2.35742-1.93177-3.17578-3.31635-.81934-1.38405-1.22754-3.15224-1.22754-5.30615,0-2.1919.54199-4.20123,1.62793-6.02799,1.08496-1.82571,2.73926-3.28733,4.96387-4.38328,2.22363-1.09595,5.04395-1.64419,8.45996-1.64419,2.24121,0,4.46484.30815,6.67188.92288,2.20605.61578,4.12695,1.49961,5.76465,2.65361l-2.18848,5.82537c-1.67285-1.0759-3.39844-1.87478-5.17773-2.39347-1.7793-.51922-3.4873-.77883-5.12402-.77883-1.9209,0-3.47852.25064-4.66992.74981-1.19238.50022-2.06445,1.15347-2.61523,1.96131-.55273.80732-.82812,1.7302-.82812,2.76864,0,1.23103.40039,2.2204,1.20117,2.9702s1.84961,1.33656,3.14941,1.75922c1.29883.42371,2.74902.83634,4.34961,1.24,1.60156.40419,3.19336.85639,4.77734,1.35556,1.58301.50022,3.02441,1.15399,4.32324,1.96131s2.34863,1.9038,3.14941,3.28733c.80078,1.38458,1.20117,3.13536,1.20117,5.24917,0,2.15391-.54297,4.14425-1.62793,5.96995-1.08594,1.82676-2.74902,3.28733-4.99121,4.3838-2.24121,1.09542-5.07031,1.64419-8.48633,1.64419Z"/>
  </g>
  <g>
    <path class="cls-3" d="M162.53961,100.63173v-14.20065h1.97843v14.20065h-1.97843Z"/>
    <path class="cls-3" d="M166.76329,100.63173v-11.08539h1.27138l5.21488,8.53575h-.62922v-8.53575h1.5324v11.08539h-1.27138l-5.21534-8.53575h.62969v8.53575h-1.5324Z"/>
    <path class="cls-3" d="M180.23523,100.79062c-.63384,0-1.22195-.14041-1.76432-.42001s-1.01359-.67621-1.41367-1.18737c-.40008-.51239-.71099-1.11716-.93275-1.81431-.22175-.69592-.33263-1.45588-.33263-2.27989s.11088-1.58398.33263-2.28113c.22175-.69592.53498-1.30069.93875-1.81308.40377-.51116.875-.90777,1.41367-1.18737s1.12863-.42001,1.76986-.42001c.68143,0,1.3028.15643,1.86549.46805.56224.31162,1.03716.77351,1.42522,1.38567l-.99789,1.25019c-.30075-.43233-.63754-.7575-1.00944-.97305-.37236-.21678-.7766-.32517-1.21179-.32517-.43565,0-.83388.09484-1.19423.28452-.36035.19091-.67311.45943-.93829.808-.26564.34857-.47122.75996-.61767,1.2354-.14691.47544-.2199.99768-.2199,1.56797s.07299,1.09253.2199,1.56797c.14645.47544.35203.88683.61767,1.2354.26518.34857.57794.61709.93829.80677.36035.19091.75858.28576,1.19423.28576.43519,0,.83943-.10839,1.21179-.32517.3719-.21555.70868-.54565,1.00944-.98906l.99789,1.2662c-.38807.60231-.86299,1.06173-1.42522,1.37828-.5627.31655-1.18822.47544-1.87704.47544Z"/>
    <path class="cls-3" d="M188.58652,100.79062c-1.14018,0-2.03319-.42863-2.67859-1.28344-.64585-.85481-.96832-2.09021-.96832-3.70498v-6.25585h1.54441v6.17579c0,1.14056.18387,1.9695.55253,2.48682.3682.51732.88886.77598,1.56197.77598s1.19192-.25866,1.55643-.77598c.36404-.51732.54653-1.34626.54653-2.48682v-6.17579h1.52039v6.25585c0,1.61477-.32293,2.85018-.96832,3.70498s-1.53425,1.28344-2.66704,1.28344Z"/>
    <path class="cls-3" d="M194.38397,100.63173v-11.08539h3.89684c.99789,0,1.75785.26112,2.28082.78337.5225.52348.78399,1.22309.78399,2.09883,0,.59122-.10302,1.09499-.30907,1.51254-.20605.41632-.48093.73903-.82557.96566-.34418.22663-.71885.34118-1.12262.34118l.2139-.57028c.46707,0,.88701.11332,1.25937.33995.3719.22663.66711.55673.88516.99029.21759.43233.32662.97059.32662,1.61477,0,.95088-.27349,1.68991-.82002,2.21708-.54607.5284-1.35823.79199-2.43512.79199h-4.1343ZM195.92838,99.01696h2.49472c.57794,0,1.02191-.12687,1.33052-.3806.30907-.25373.46337-.6602.46337-1.21939,0-.54934-.1543-.95211-.46337-1.212-.30861-.25866-.75257-.38799-1.33052-.38799h-2.61345v-1.59876h2.30484c.53821,0,.95215-.12687,1.24135-.3806.28874-.25373.43334-.6331.43334-1.14056,0-.51609-.1446-.90161-.43334-1.15534-.2892-.25373-.70314-.3806-1.24135-.3806h-2.18611v7.85584Z"/>
    <path class="cls-3" d="M202.24787,100.63173l3.74254-11.08539h1.52039l3.75409,11.08539h-1.61556l-3.21957-9.99286h.61767l-3.20756,9.99286h-1.592ZM203.97061,98.06608l.41579-1.61477h4.49049l.41579,1.61477h-5.32206Z"/>
    <path class="cls-3" d="M212.32237,100.63173v-11.08539h3.63536c.90272,0,1.69456.23279,2.37599.69715.68097.46435,1.21179,1.10854,1.592,1.93132.37975.82401.57009,1.7946.57009,2.91422,0,1.10854-.19034,2.07666-.57009,2.9056-.38021.82894-.91103,1.47559-1.592,1.93994-.68143.46559-1.47327.69715-2.37599.69715h-3.63536ZM213.86679,98.89009h2.0198c.62553,0,1.16605-.15889,1.62157-.47544.45505-.31655.80755-.75996,1.05702-1.33025s.37421-1.2354.37421-1.99537c0-.77105-.12474-1.43864-.37421-2.00399-.24947-.56412-.60197-1.00508-1.05702-1.32162-.45552-.31655-.99604-.47544-1.62157-.47544h-2.0198v7.60211Z"/>
    <path class="cls-3" d="M226.03177,100.79062c-.64955,0-1.24736-.14288-1.79389-.42863-.54653-.28452-1.02191-.68237-1.42568-1.19476s-.717-1.1147-.93875-1.80569-.33263-1.44849-.33263-2.2725.11088-1.58152.33263-2.2725.53498-1.2933.93875-1.80569c.40377-.51116.87916-.91023,1.42568-1.19599.54653-.28452,1.14018-.4274,1.78187-.4274.64863,0,1.24459.14288,1.78788.4274.54145.28576,1.01452.68483,1.41922,1.19599.4047.51239.717,1.1147.93875,1.80569s.33263,1.44849.33263,2.2725-.11088,1.58398-.33263,2.27989c-.22175.69715-.53405,1.29945-.93875,1.80569-.4047.50746-.87777.90284-1.41922,1.18737-.54329.28576-1.13463.42863-1.77587.42863ZM226.01976,98.98493c.41856,0,.80663-.09484,1.16328-.28576.35665-.18968.66526-.46066.92767-.81539.26056-.3535.46383-.76489.61167-1.2354.14599-.46928.2199-.98906.2199-1.55934s-.07392-1.09006-.2199-1.56058c-.14784-.46928-.35111-.88067-.61167-1.23417-.26241-.3535-.57101-.62571-.92767-.81662-.35665-.18968-.74472-.28452-1.16328-.28452-.41994,0-.80616.09484-1.1582.28452-.35249.19091-.66156.46312-.92674.81662-.26564.3535-.47122.76489-.61767,1.23417-.14691.47051-.2199.99029-.2199,1.56058,0,.5592.07299,1.07651.2199,1.55195.14645.47544.35018.88929.61167,1.24279.26148.35473.57009.62571.92674.81539.35619.19091.74426.28576,1.1642.28576Z"/>
    <path class="cls-3" d="M232.13736,100.63173v-11.08539h3.42146c.7364,0,1.36747.15766,1.89414.47544.52666.31655.93321.76982,1.21779,1.36104.28551.59122.4278,1.2933.4278,2.10622s-.14229,1.51254-.4278,2.09883c-.28458.58629-.69113,1.03464-1.21779,1.34626s-1.15773.46682-1.89414.46682h-2.56679l.68928-.93364v4.16441h-1.54395ZM233.68131,96.68902l-.68928-.9829h2.49472c.68097,0,1.19469-.19461,1.53841-.58506.34464-.39045.51742-.93487.51742-1.63202,0-.707-.17278-1.25019-.51742-1.63078-.34372-.3806-.85744-.57028-1.53841-.57028h-2.49472l.68928-1.0137v6.41474ZM237.57769,100.63173l-2.10203-4.02276h1.65113l2.11404,4.02276h-1.66314Z"/>
    <path class="cls-3" d="M239.64553,100.63173l3.74208-11.08539h1.52085l3.75316,11.08539h-1.6151l-3.22003-9.99286h.61814l-3.2071,9.99286h-1.592ZM241.36781,98.06608l.41579-1.61477h4.49049l.41579,1.61477h-5.32206Z"/>
    <path class="cls-3" d="M252.99874,100.63173v-11.08539h3.6349c.90272,0,1.69456.23279,2.37553.69715s1.21225,1.10854,1.592,1.93132c.38068.82401.57009,1.7946.57009,2.91422,0,1.10854-.18941,2.07666-.57009,2.9056-.37975.82894-.91103,1.47559-1.592,1.93994-.68097.46559-1.47281.69715-2.37553.69715h-3.6349ZM254.54269,98.89009h2.0198c.62553,0,1.16605-.15889,1.62157-.47544s.80755-.75996,1.05702-1.33025.37421-1.2354.37421-1.99537c0-.77105-.12474-1.43864-.37421-2.00399-.24947-.56412-.6015-1.00508-1.05702-1.32162s-.99604-.47544-1.62157-.47544h-2.0198v7.60211Z"/>
    <path class="cls-3" d="M264.35524,98.9061h4.69284v1.72563h-6.23679v-11.08539h6.07048v1.72563h-4.52653v7.63414ZM264.23605,94.15417h4.13476v1.69483h-4.13476v-1.69483Z"/>
    <path class="cls-3" d="M274.04953,100.63173v-11.08539h1.27046l5.21581,8.53575h-.63015v-8.53575h1.53287v11.08539h-1.27138l-5.21488-8.53575h.62922v8.53575h-1.53194Z"/>
    <path class="cls-3" d="M285.21662,98.9061h4.69284v1.72563h-6.23679v-11.08539h6.07048v1.72563h-4.52653v7.63414ZM285.09743,94.15417h4.13476v1.69483h-4.13476v-1.69483Z"/>
    <path class="cls-3" d="M295.51611,100.79062c-.64955,0-1.24551-.14041-1.78788-.42001s-1.01544-.67621-1.42014-1.18737c-.40377-.51239-.71608-1.11716-.93783-1.81431-.22175-.69592-.33263-1.45588-.33263-2.27989s.11088-1.58398.33263-2.28113c.22175-.69592.5359-1.30069.9443-1.81308.40747-.51116.88516-.90777,1.43123-1.18737.54699-.2796,1.1448-.42001,1.79435-.42001.70406,0,1.33976.15396,1.90615.45943.56639.3067,1.04316.75504,1.43215,1.34626l-.97479,1.26743c-.32431-.43356-.67542-.75257-1.05148-.95827s-.78999-.30916-1.24089-.30916c-.43611,0-.83989.09484-1.21225.28452-.37236.19091-.69298.45943-.96185.808-.2698.34857-.47769.75996-.62368,1.2354-.14691.47544-.2199.99768-.2199,1.56797,0,.5592.07299,1.07651.2199,1.55195.14599.47544.35388.88929.62368,1.24279.26888.35473.5858.62571.94984.81539.36497.19091.76874.28576,1.21225.28576.41209,0,.8094-.08745,1.19377-.26112.38437-.1749.75026-.46805,1.0986-.87944l.87962,1.53594c-.43611.46559-.9406.81539-1.51439,1.05311-.57471.23772-1.15496.3572-1.74076.3572ZM297.30953,99.1118v-4.14963h1.46172v4.41814l-1.46172-.26851Z"/>
    <path class="cls-3" d="M304.69944,100.79062c-.64955,0-1.24736-.14288-1.79435-.42863-.54607-.28452-1.02099-.68237-1.42568-1.19476-.40377-.51239-.71608-1.1147-.93783-1.80569s-.33263-1.44849-.33263-2.2725.11088-1.58152.33263-2.2725.53405-1.2933.93783-1.80569c.4047-.51116.87962-.91023,1.42568-1.19599.54699-.28452,1.1411-.4274,1.78234-.4274.64955,0,1.24551.14288,1.78788.4274.54237.28576,1.01544.68483,1.41922,1.19599.4047.51239.717,1.1147.93875,1.80569s.33263,1.44849.33263,2.2725-.11088,1.58398-.33263,2.27989c-.22175.69715-.53405,1.29945-.93875,1.80569-.40377.50746-.87685.90284-1.41922,1.18737-.54237.28576-1.13463.42863-1.77587.42863ZM304.68743,98.98493c.41948,0,.80755-.09484,1.1642-.28576.35665-.18968.66526-.46066.92674-.81539.26148-.3535.46476-.76489.61167-1.2354.14599-.46928.2199-.98906.2199-1.55934s-.07392-1.09006-.2199-1.56058c-.14691-.46928-.35018-.88067-.61167-1.23417s-.57009-.62571-.92674-.81662c-.35665-.18968-.74472-.28452-1.1642-.28452s-.8057.09484-1.15866.28452c-.35203.19091-.66064.46312-.92674.81662-.26518.3535-.47122.76489-.61721,1.23417-.14691.47051-.2199.99029-.2199,1.56058,0,.5592.07299,1.07651.2199,1.55195.14599.47544.35018.88929.61167,1.24279.26148.35473.57009.62571.92674.81539.35665.19091.74472.28576,1.1642.28576Z"/>
    <path class="cls-3" d="M314.65428,100.79062c-.63292,0-1.22149-.14041-1.76386-.42001s-1.01359-.67621-1.41367-1.18737c-.40008-.51239-.71053-1.11716-.93229-1.81431-.22175-.69592-.33263-1.45588-.33263-2.27989s.11088-1.58398.33263-2.28113c.22175-.69592.53405-1.30069.93783-1.81308.4047-.51116.875-.90777,1.41367-1.18737s1.12909-.42001,1.77033-.42001c.68097,0,1.3028.15643,1.86549.46805.56177.31162,1.03762.77351,1.42568,1.38567l-.99789,1.25019c-.30121-.43233-.63754-.7575-1.0099-.97305-.37236-.21678-.77613-.32517-1.21225-.32517-.43519,0-.83342.09484-1.19377.28452-.36035.19091-.67265.45943-.93875.808-.26518.34857-.47122.75996-.61721,1.2354-.14691.47544-.2199.99768-.2199,1.56797s.07299,1.09253.2199,1.56797c.14599.47544.35203.88683.61721,1.2354.2661.34857.5784.61709.93875.80677.36035.19091.75858.28576,1.19377.28576.43611,0,.83989-.10839,1.21225-.32517.37236-.21555.70868-.54565,1.0099-.98906l.99789,1.2662c-.38807.60231-.86391,1.06173-1.42568,1.37828-.5627.31655-1.18822.47544-1.87751.47544Z"/>
    <path class="cls-3" d="M319.44229,100.63173v-11.08539h1.54395v11.08539h-1.54395Z"/>
    <path class="cls-3" d="M327.12879,100.79062c-.64955,0-1.24736-.14288-1.79435-.42863-.54607-.28452-1.02099-.68237-1.42568-1.19476-.40377-.51239-.71608-1.1147-.93783-1.80569s-.33263-1.44849-.33263-2.2725.11088-1.58152.33263-2.2725.53405-1.2933.93783-1.80569c.4047-.51116.87962-.91023,1.42568-1.19599.54699-.28452,1.1411-.4274,1.78234-.4274.64955,0,1.24551.14288,1.78788.4274.54237.28576,1.01544.68483,1.41922,1.19599.4047.51239.717,1.1147.93875,1.80569s.33263,1.44849.33263,2.2725-.11088,1.58398-.33263,2.27989c-.22175.69715-.53405,1.29945-.93875,1.80569-.40377.50746-.87685.90284-1.41922,1.18737-.54237.28576-1.13463.42863-1.77587.42863ZM327.11678,98.98493c.41948,0,.80755-.09484,1.1642-.28576.35665-.18968.66526-.46066.92674-.81539.26148-.3535.46476-.76489.61167-1.2354.14599-.46928.2199-.98906.2199-1.55934s-.07392-1.09006-.2199-1.56058c-.14691-.46928-.35018-.88067-.61167-1.23417s-.57009-.62571-.92674-.81662c-.35665-.18968-.74472-.28452-1.1642-.28452s-.8057.09484-1.15866.28452c-.35203.19091-.66064.46312-.92674.81662-.26518.3535-.47122.76489-.61721,1.23417-.14691.47051-.2199.99029-.2199,1.56058,0,.5592.07299,1.07651.2199,1.55195.14599.47544.35018.88929.61167,1.24279.26148.35473.57009.62571.92674.81539.35665.19091.74472.28576,1.1642.28576Z"/>
    <path class="cls-3" d="M335.81226,100.79062c-.64955,0-1.27138-.1244-1.86549-.37321-.59411-.24757-1.06534-.56659-1.41367-.95704l.53498-1.59999c.33263.34857.7438.63926,1.23535.87082.49063.23279.99327.34857,1.50884.34857.43519,0,.78722-.06282,1.05702-.18968.26888-.12687.46753-.29807.59411-.51485s.19034-.46189.19034-.73656c0-.33749-.09147-.6097-.27349-.81539s-.41763-.36951-.70684-.49145c-.2892-.12071-.60982-.23402-.96278-.33995-.35203-.10593-.70499-.23033-1.05702-.37198-.35203-.14288-.67357-.32763-.96185-.55427-.2892-.22787-.52481-.53087-.70684-.91147-.18295-.37937-.27349-.86466-.27349-1.45711,0-.60107.12012-1.15288.3622-1.65419.24116-.50131.60982-.90284,1.10507-1.20338.49432-.30177,1.12262-.45204,1.88305-.45204.49894,0,.99327.08499,1.48482.25373.49063.16874.91843.41139,1.28247.72794l-.48693,1.59999c-.37236-.29561-.75581-.51485-1.15219-.65773-.39638-.14165-.77613-.21309-1.14018-.21309-.4278,0-.77429.06898-1.03947.2057-.2661.13795-.45921.31655-.5821.53826s-.18479.47544-.18479.75996c0,.33872.08963.6097.26795.81539.17833.20693.41117.36705.70037.48406.2892.11578.61167.2291.96832.33995s.71053.23526,1.06349.37198c.35203.13795.67265.31655.96185.53826s.52297.52348.70129.90284c.17833.3806.26703.86096.26703,1.4411,0,.59122-.12104,1.1381-.3622,1.63941s-.61167.90284-1.11061,1.20338-1.12817.45204-1.88859.45204Z"/>
    <path class="cls-3" d="M344.95341,100.59446v-13.68566h3.77679c.81288,0,1.50949.19464,2.09085.58696.58136.3908,1.03013.95039,1.34427,1.6803.31516.7299.47223,1.59666.47223,2.60028s-.15707,1.87037-.47223,2.60028c-.31414.73142-.76291,1.29101-1.34427,1.68182s-1.27797.58696-2.09085.58696h-2.83336l.76087-1.19217v5.14125h-1.7043ZM346.65771,95.72692l-.76087-1.23171h2.75381c.75169,0,1.31877-.23874,1.69818-.7147.38043-.47596.57116-1.14351.57116-2.00419,0-.87284-.19073-1.54344-.57116-2.01331-.37941-.46987-.94649-.70405-1.69818-.70405h-2.75381l.76087-1.25148v7.91944Z"/>
    <path class="cls-3" d="M358.28999,100.79062c-1.25961,0-2.24486-.52918-2.95779-1.5845-.71191-1.05532-1.06888-2.58051-1.06888-4.57405v-7.72328h1.70532v7.62443c0,1.4081.20297,2.43149.60992,3.07015.40593.63866.98117.958,1.7247.958.74251,0,1.31469-.31933,1.71756-.958.40185-.63866.60278-1.66205.60278-3.07015v-7.62443h1.6788v7.72328c0,1.99354-.35595,3.51874-1.06888,4.57405s-1.6941,1.5845-2.94351,1.5845Z"/>
    <path class="cls-3" d="M368.93804,100.79062c-.69865,0-1.34835-.17335-1.94704-.51853s-1.11886-.83483-1.56049-1.46589c-.44163-.63258-.78432-1.37921-1.02911-2.23989-.24478-.85916-.36717-1.79738-.36717-2.81468s.12239-1.95553.36717-2.81621c.24478-.85916.58952-1.60578,1.03523-2.23837.44673-.63106.96587-1.1207,1.56049-1.46589s1.24635-.51853,1.95418-.51853c.75169,0,1.4381.19312,2.05924.57784.62012.38472,1.14538.95496,1.57375,1.71071l-1.10152,1.54344c-.3325-.53374-.70375-.93519-1.11478-1.2013-.41103-.26763-.85674-.40145-1.33815-.40145-.48039,0-.91998.11709-1.31775.35127-.39777.2357-.74251.56719-1.03625.99753-.29272.43034-.52016.93823-.68131,1.52519-.16217.58696-.24274,1.23171-.24274,1.93576s.08057,1.3488.24274,1.93576c.16115.58696.38859,1.09485.68131,1.52519.29374.43034.63848.76184,1.03625.99601.39777.2357.83736.35279,1.31775.35279.48141,0,.92711-.13382,1.33815-.40145.41103-.26611.78228-.67364,1.11478-1.22107l1.10152,1.56321c-.42837.74359-.95363,1.31078-1.57375,1.70158-.62114.3908-1.31163.58696-2.07249.58696Z"/>
    <path class="cls-3" d="M376.87206,100.59446l-4.0124-13.68566h1.84913l3.57995,12.3764h-1.06277l3.61973-12.3764h1.7043l-3.99914,13.68566h-1.6788Z"/>
  </g>
</svg>