<?xml version="1.0" encoding="UTF-8"?>
<svg id="Layer_1" data-name="Layer 1" xmlns="http://www.w3.org/2000/svg" version="1.1" viewBox="0 0 71.884 64.3">
  <defs>
    <style>
      .cls-1 {
        fill: none;
      }

      .cls-1, .cls-2, .cls-3, .cls-4, .cls-5, .cls-6 {
        stroke-width: 0px;
      }

      .cls-2 {
        fill: #894ce0;
      }

      .cls-3 {
        fill: #f9d782;
      }

      .cls-4 {
        fill: #5204ab;
      }

      .cls-5 {
        fill: #fdc828;
      }

      .cls-6 {
        fill: #fff;
      }
    </style>
  </defs>
  <g>
    <path class="cls-5" d="M71.884,32.145l-12.551-17.153-2.596-3.547c-.58-.688-1.183-1.353-1.817-1.99-.255-.193-.527-.36-.806-.514-.031-.017-.059-.041-.091-.058-.081-.043-.166-.076-.249-.114-.557-.268-1.146-.467-1.761-.57-.033-.006-.068-.003-.101-.009-.32-.052-.646-.081-.977-.081-2.278,0-4.142,1.094-5.31,2.68-.222.301-.428.614-.597.947-.19.375-.332.772-.45,1.177-.046.158-.1.314-.134.475-.011.053-.013.108-.023.161-.048.235-.084.472-.103.713-.022.295-.025.592-.007.89h0c.018.298.057.597.118.895.061.298.143.595.248.888.21.587.512,1.162.912,1.709l.117.161.117.16,3.093,4.227,6.555,8.959-6.555,8.959-1.039,1.42-2.053,2.806-.235.321c-.4.547-.702,1.122-.912,1.709-.095.265-.165.532-.224.8-.018.08-.03.161-.045.241-.035.198-.062.396-.078.595-.007.08-.015.159-.019.238-.012.268-.014.535.006.8.02.265.062.528.113.787.015.077.035.153.053.229.045.191.098.379.159.565.024.073.047.147.074.22.091.247.192.491.311.726.083.164.184.318.281.474.057.093.105.191.166.281,0,.001.002.003.003.004.144.21.299.412.466.605.013.015.028.027.041.042.06.068.127.13.19.195,0,0,0,0,0,0,.017.018.036.034.053.052.112.116.225.232.347.339.058.051.12.099.181.147.023.019.046.038.07.057.093.074.191.144.287.214.043.031.084.065.128.095.067.046.138.088.207.13.027.017.054.035.082.051.142.085.289.165.439.24.004.002.008.005.013.007.099.049.198.097.3.141.005.002.01.005.015.007.144.062.294.115.444.167.019.007.037.015.057.021.107.036.213.074.324.105.191.053.388.092.587.128.099.018.194.042.294.056,0,0,0,0,.001,0,.223.03.455.04.687.049.083.003.161.017.245.017.365,0,.725-.03,1.078-.09.27-.045.532-.117.791-.2.08-.024.165-.035.245-.062.102-.035.195-.088.295-.128.23-.091.462-.179.68-.295.191-.102.367-.23.548-.349.115-.076.239-.14.349-.223.634-.636,1.238-1.302,1.817-1.989l2.596-3.548,6.276-8.576,6.275-8.576-.004-.005.004-.005Z"/>
    <polygon class="cls-1" points="47.878 42.529 48.917 41.109 55.473 32.15 48.917 41.109 47.878 42.529"/>
    <path class="cls-6" d="M46.175,54.166c-.063-.066-.13-.127-.19-.195.06.068.127.13.19.195Z"/>
    <path class="cls-6" d="M44.485,51.055c-.018-.076-.037-.152-.053-.229.015.077.034.152.053.229Z"/>
    <path class="cls-6" d="M44.678,47.365c.21-.587.512-1.162.912-1.709-.4.547-.702,1.122-.912,1.709Z"/>
    <path class="cls-6" d="M44.718,51.839c-.027-.072-.05-.146-.074-.22.024.073.047.147.074.22Z"/>
    <path class="cls-6" d="M44.409,48.406c.014-.08.027-.161.045-.241-.018.08-.03.16-.045.241Z"/>
    <path class="cls-6" d="M45.309,53.039c.058.094.107.194.169.285,0-.001-.002-.003-.003-.004-.061-.09-.109-.188-.166-.281Z"/>
    <path class="cls-6" d="M44.579,12.912c-.128.44-.225.889-.26,1.349.022-.295.065-.587.126-.874.034-.161.088-.317.134-.475Z"/>
    <path class="cls-6" d="M45.59,18.644c-.4-.547-.702-1.122-.912-1.709.21.587.512,1.162.912,1.709Z"/>
    <path class="cls-6" d="M50.935,8.108c.364,0,.725.031,1.078.09.282.047.555.126.826.209-.611-.187-1.249-.299-1.904-.299-2.278,0-4.142,1.094-5.31,2.68,1.168-1.585,3.032-2.68,5.31-2.68Z"/>
    <path class="cls-6" d="M44.313,49.239c.004-.079.012-.159.019-.238-.007.08-.015.159-.019.238Z"/>
    <path class="cls-6" d="M52.013,56.102c.46-.077.901-.219,1.33-.39-.1.039-.193.093-.295.128-.336.115-.682.203-1.035.262Z"/>
    <path class="cls-6" d="M49.121,55.941c-.11-.031-.216-.069-.324-.105.107.036.213.074.324.105Z"/>
    <path class="cls-6" d="M48.296,55.647c-.107-.046-.211-.096-.314-.147.103.051.207.101.314.147Z"/>
    <path class="cls-6" d="M50.935,56.192c.365,0,.725-.03,1.078-.09-.353.059-.713.09-1.078.09h0Z"/>
    <path class="cls-6" d="M50.003,56.125c-.1-.014-.196-.038-.294-.056.099.018.194.042.294.056Z"/>
    <path class="cls-6" d="M47.53,55.252c-.097-.059-.194-.118-.288-.181.094.063.19.123.288.181Z"/>
    <path class="cls-6" d="M46.825,54.761c-.084-.067-.169-.132-.25-.203.08.071.166.136.25.203Z"/>
    <polygon class="cls-3" points="47.878 42.529 45.59 45.656 48.917 41.109 47.878 42.529"/>
    <path class="cls-3" d="M44.454,48.166c.058-.268.129-.536.224-.8-.095.265-.165.532-.224.8Z"/>
    <path class="cls-3" d="M44.432,50.826c-.052-.26-.093-.522-.113-.787.02.265.062.527.113.787Z"/>
    <path class="cls-3" d="M44.331,49.001c.017-.198.043-.396.078-.595-.035.198-.062.396-.078.595Z"/>
    <path class="cls-3" d="M45.029,52.565c.083.164.184.318.281.474-.234-.381-.437-.78-.592-1.2.091.248.192.491.311.726Z"/>
    <path class="cls-3" d="M44.319,50.039c-.02-.265-.019-.532-.006-.8-.013.268-.014.535.006.8Z"/>
    <path class="cls-3" d="M44.644,51.619c-.061-.186-.114-.374-.159-.565.045.191.098.379.159.565Z"/>
    <path class="cls-3" d="M54.024,55.417c.191-.102.367-.23.548-.349-.387.257-.797.473-1.228.644.23-.091.462-.179.68-.295Z"/>
    <path class="cls-3" d="M49.122,55.941c.189.053.385.091.583.127-.197-.036-.394-.075-.583-.127Z"/>
    <path class="cls-3" d="M46.826,54.762c.135.107.271.212.415.309-.143-.097-.281-.201-.415-.309Z"/>
    <path class="cls-3" d="M46.575,54.558c-.14-.124-.271-.256-.399-.391.129.135.259.267.399.391Z"/>
    <path class="cls-3" d="M47.531,55.253c.146.088.296.17.45.246-.154-.077-.304-.159-.45-.246Z"/>
    <path class="cls-3" d="M48.297,55.648c.162.07.329.13.499.187-.169-.057-.337-.117-.499-.187Z"/>
    <path class="cls-3" d="M45.478,53.324c.144.21.299.412.466.605.013.015.028.027.041.042-.181-.206-.352-.421-.507-.647Z"/>
    <path class="cls-3" d="M50.004,56.125c.298.04.603.064.917.065-.314,0-.619-.025-.917-.065Z"/>
    <polygon class="cls-3" points="45.825 45.335 45.59 45.656 47.878 42.529 45.825 45.335"/>
    <path class="cls-3" d="M45.985,53.971h0c.06.068.127.13.19.195,0,0,0,0,0,0-.063-.066-.13-.128-.19-.196Z"/>
    <path class="cls-3" d="M47.241,55.07s0,0,0,0c.094.063.191.123.288.181,0,0,0,0,0,0-.098-.059-.195-.119-.289-.182Z"/>
    <path class="cls-3" d="M47.981,55.499s0,0,.001,0c.103.051.207.102.314.147,0,0,0,0,.001,0-.107-.046-.212-.097-.316-.149Z"/>
    <path class="cls-3" d="M50.935,56.191c-.005,0-.01,0-.014,0,.005,0,.009.001.014.001.364,0,.725-.03,1.078-.09.353-.059.699-.147,1.035-.262-.672.229-1.384.352-2.113.352Z"/>
    <path class="cls-3" d="M48.796,55.835s.001,0,.002,0c.107.036.213.074.324.105h0c-.111-.031-.218-.07-.327-.106Z"/>
    <path class="cls-3" d="M49.705,56.068s.003,0,.004,0c.098.018.194.042.294.056,0,0,0,0,.001,0-.102-.014-.199-.039-.299-.057Z"/>
    <path class="cls-3" d="M46.575,54.558s0,0,0,0c.08.071.166.136.25.203,0,0,0,0,0,0-.084-.067-.17-.133-.251-.204Z"/>
    <path class="cls-3" d="M48.297,55.648s0,0-.001,0c.163.07.331.131.502.189,0,0-.001,0-.002,0-.17-.057-.337-.117-.499-.187Z"/>
    <path class="cls-3" d="M50.004,56.125s0,0-.001,0c.303.041.613.066.933.066h0c-.005,0-.01-.001-.014-.001-.314,0-.619-.025-.917-.065Z"/>
    <path class="cls-3" d="M49.122,55.941h0c.191.053.388.092.587.128-.001,0-.002,0-.004,0-.198-.036-.394-.075-.583-.127Z"/>
    <path class="cls-3" d="M46.175,54.167s0,0,0,0c.129.135.26.268.4.392,0,0,0,0,0,0-.14-.124-.271-.256-.399-.391Z"/>
    <path class="cls-3" d="M45.944,53.929c.013.015.028.027.041.042h0c-.013-.015-.028-.027-.041-.042Z"/>
    <path class="cls-3" d="M47.531,55.253s0,0,0,0c.147.088.297.171.452.248,0,0,0,0-.001,0-.154-.077-.304-.158-.45-.246Z"/>
    <path class="cls-3" d="M46.826,54.762s0,0,0,0c.135.108.272.213.417.31,0,0,0,0,0,0-.144-.097-.281-.201-.415-.309Z"/>
    <path class="cls-5" d="M45.029,11.735c-.19.375-.332.772-.45,1.177.222-.764.575-1.483,1.047-2.124-.222.301-.428.614-.597.947Z"/>
    <path class="cls-5" d="M44.319,14.261c-.022.295-.025.592-.007.89.018.298.057.597.118.895-.121-.596-.156-1.196-.111-1.785Z"/>
    <polygon class="cls-5" points="45.59 18.644 45.707 18.804 45.746 18.858 45.59 18.644"/>
    <polygon class="cls-5" points="45.825 18.964 45.746 18.858 45.825 18.965 48.917 23.191 45.825 18.964"/>
    <polygon class="cls-5" points="45.707 18.804 45.825 18.965 45.746 18.858 45.707 18.804"/>
    <path class="cls-5" d="M52.013,8.198c1.059.178,2.055.614,2.907,1.257-.284-.214-.584-.406-.897-.572-.376-.2-.775-.351-1.184-.475-.271-.083-.544-.162-.826-.209Z"/>
    <path class="cls-5" d="M54.023,8.883c-.376-.2-.775-.351-1.184-.475.409.125.808.275,1.184.475Z"/>
    <path class="cls-4" d="M41.798,54.204c-.821-1.618-1.167-3.375-1.088-5.107-2.576,1.311-5.476,2.072-8.56,2.072-5.769,0-10.937-2.592-14.427-6.661-.705-.823-1.329-1.713-1.887-2.647-.061-.103-.133-.199-.193-.303-.212-.37-.41-.749-.597-1.134-1.219-2.503-1.914-5.306-1.914-8.273,0-10.487,8.532-19.018,19.018-19.018,3.084,0,5.984.76,8.56,2.071-.079-1.732.267-3.489,1.088-5.107,1.442-2.842,4.069-4.777,7.109-5.386C44.028,1.723,38.29,0,32.15,0,14.394,0,0,14.394,0,32.15c0,4.429.917,8.637,2.539,12.475.721,1.705,1.566,3.344,2.557,4.884.078.121.168.233.247.353.397.601.801,1.198,1.238,1.769,5.874,7.698,15.139,12.668,25.57,12.668,6.14,0,11.877-1.723,16.757-4.71-3.04-.609-5.667-2.544-7.109-5.386Z"/>
    <path class="cls-2" d="M32.15,0C14.394,0,0,14.394,0,32.15c0,4.429.917,8.637,2.539,12.475-.075-2.906,1.777-5.664,4.734-6.656,2.953-.991,6.08.096,7.773,2.454-1.219-2.503-1.914-5.306-1.914-8.273,0-10.487,8.532-19.018,19.018-19.018,3.084,0,5.984.76,8.56,2.071-.079-1.732.267-3.489,1.088-5.107,1.442-2.842,4.069-4.777,7.109-5.386C44.028,1.723,38.29,0,32.15,0Z"/>
  </g>
  <path class="cls-3" d="M62.732,42.072l-7.26-9.922-6.555,8.959-3.327,4.547c-.4.547-.702,1.122-.912,1.709-.095.265-.165.532-.224.8-.018.08-.03.161-.045.241-.035.198-.062.396-.078.595-.007.08-.015.159-.019.238-.012.268-.014.535.006.8.02.265.062.528.113.787.015.077.035.153.053.229.045.191.098.379.159.565.024.073.047.147.074.22.155.42.357.819.592,1.2.057.093.105.191.166.281,0,.001.002.003.003.004.155.226.325.441.507.647.06.068.128.13.19.196.129.134.259.267.399.391.081.071.167.137.251.204.135.107.272.212.415.309.094.064.192.123.289.182.146.088.296.17.45.246.104.052.209.102.316.149.162.07.329.13.499.187.108.036.215.075.327.106.189.053.385.091.583.127.1.018.197.043.299.057.298.04.603.064.917.065.005,0,.009,0,.014,0,.729,0,1.441-.122,2.113-.352.102-.035.195-.088.295-.128.431-.171.84-.388,1.228-.644.115-.076.239-.14.349-.223.634-.636,1.238-1.302,1.817-1.989l2.596-3.548,6.276-8.576,6.275-8.576-.004-.005-8.204,11.212-.944-1.291Z"/>
  <path class="cls-5" d="M59.333,14.992l-2.596-3.547c-.58-.688-1.183-1.353-1.817-1.99-.852-.643-1.847-1.079-2.907-1.257-.353-.059-.714-.09-1.078-.09-2.278,0-4.142,1.094-5.31,2.68-.472.641-.824,1.36-1.047,2.124-.046.158-.1.314-.134.475-.061.287-.103.579-.126.874-.045.589-.011,1.19.111,1.785.061.298.143.595.248.888.21.587.512,1.162.912,1.709l.156.214.078.107,3.093,4.227,6.555,8.959,7.26,9.922.944,1.291,8.204-11.212.004-.005-12.551-17.153Z"/>
</svg>