<?xml version="1.0" encoding="UTF-8"?>
<svg id="Layer_1" data-name="Layer 1" xmlns="http://www.w3.org/2000/svg" version="1.1" viewBox="0 0 165.85316 167.7">
  <defs>
    <style>
      .cls-1 {
        fill: none;
      }

      .cls-1, .cls-2, .cls-3, .cls-4 {
        stroke-width: 0px;
      }

      .cls-2 {
        fill: #236cbc;
      }

      .cls-3 {
        fill: #ec7733;
      }

      .cls-4 {
        fill: #fff;
      }
    </style>
  </defs>
  <path class="cls-2" d="M48.40925,60.84824c-6.35754,6.35803-6.35754,16.66583,0,23.02216,6.35724,6.35803,16.66547,6.35803,23.02258,0,6.35767-6.35632,6.35767-16.66412.00085-23.02216-6.35797-6.35718-16.6662-6.35718-23.02344,0Z"/>
  <path class="cls-2" d="M42.92224,148.71433c-2.92525-.63437-5.81081,1.22198-6.44463,4.14609-.63454,2.92396,1.22175,5.80927,4.14577,6.4441,2.9235.63491,5.80899-1.2215,6.44463-4.14609.63389-2.92382-1.22233-5.80914-4.14577-6.4441Z"/>
  <g>
    <path class="cls-1" d="M140.14577,56.77961c-.57446-.02948-1.1507-.08618-1.72723-.15717.57666.07098,1.15277.12769,1.72723.15717Z"/>
    <path class="cls-1" d="M141.39009,56.81245c.13995,0,.2785-.01147.41815-.01392-.51489.00891-1.03113.00824-1.54932-.01593.37775.01764.75519.02985,1.13116.02985Z"/>
    <path class="cls-1" d="M128.55543,26.70258c.05457-.12476.11554-.24487.17334-.36737-.05786.12256-.11871.24249-.17334.36737Z"/>
    <path class="cls-1" d="M147.77583,55.95881c-.56946.1546-1.14618.28564-1.72736.39899.58124-.11334,1.15784-.24438,1.72736-.39899Z"/>
    <path class="cls-1" d="M129.13631,25.53467c.07239-.1308.14667-.26007.22284-.38788-.07623.12793-.15039.25696-.22284.38788Z"/>
    <path class="cls-1" d="M149.4612,55.43043c-.49054.17194-.987.3277-1.48853.46832.50153-.14069.99792-.29639,1.48853-.46832Z"/>
    <path class="cls-1" d="M143.63844,56.69544c-.38428.03571-.7699.06317-1.1571.08063.38733-.01746.77271-.04486,1.1571-.08063Z"/>
    <path class="cls-1" d="M145.53084,56.44434c-.41315.07141-.8277.13629-1.24536.1864.41779-.05011.83215-.11499,1.24536-.1864Z"/>
    <path class="cls-1" d="M129.83662,24.40375c.07495-.10919.14709-.22089.22485-.32758-.07782.10681-.1499.2182-.22485.32758Z"/>
    <path class="cls-1" d="M137.3893,18.90766c.13843-.04126.27759-.07996.41736-.117-.13989.03711-.27881.07568-.41736.117Z"/>
    <path class="cls-1" d="M136.21382,19.31184c.11658-.04639.23572-.08588.35358-.12909-.11792.04327-.23694.0827-.35358.12909Z"/>
    <path class="cls-1" d="M135.01991,19.85047c.02448-.01245.04761-.02734.07214-.03967-.02454.01233-.04767.02722-.07214.03967Z"/>
    <path class="cls-1" d="M151.11305,54.77973c-.36511.15845-.73541.30493-1.10809.4455.3728-.14062.7428-.28705,1.10809-.4455Z"/>
    <path class="cls-1" d="M138.63899,18.59852c.13055-.02625.26025-.05524.39166-.07776-.13153.02252-.26105.05151-.39166.07776Z"/>
    <path class="cls-1" d="M130.81123,23.13044c.00995-.01141.01868-.02405.02869-.0354-.01001.01141-.01874.02399-.02869.0354Z"/>
    <path class="cls-1" d="M131.70351,22.20154c.09277-.0885.19019-.17133.28528-.25714-.09515.08582-.19238.16858-.28528.25714Z"/>
    <path class="cls-1" d="M133.69209,20.6294c.10931-.07172.21698-.14606.32819-.21472-.11133.06873-.21875.14294-.32819.21472Z"/>
    <path class="cls-1" d="M132.64833,21.3827c.11292-.08984.22729-.17773.34283-.26398-.11566.08636-.2298.17395-.34283.26398Z"/>
    <path class="cls-1" d="M143.18635,7.90369c.1012.00757.20258.01929.30383.02814-.10138-.00885-.20258-.02057-.30383-.02814Z"/>
    <path class="cls-1" d="M139.70528,7.89466c.16412-.01129.32861-.01984.49329-.02777-.16467.00793-.3291.01654-.49329.02777Z"/>
    <path class="cls-1" d="M140.14967,18.37458c.03882-.00342.0769-.01062.11578-.01373-.03888.00311-.0769.01025-.11578.01373Z"/>
    <path class="cls-1" d="M138.37324,8.02051c.14569-.01807.29236-.03088.43854-.04633-.14624.01544-.29285.02826-.43854.04633Z"/>
    <path class="cls-1" d="M141.37068,7.8321c-.10083,0-.20068.00775-.30139.00897.14917-.00183.2984-.00403.44788-.00317-.04871-.00031-.09784-.0058-.14648-.0058Z"/>
    <path class="cls-1" d="M137.06496,8.21595c.04718-.00848.09503-.01392.14233-.02209-.0473.00824-.09515.01367-.14233.02209Z"/>
    <path class="cls-1" d="M132.77443,9.40131c.15112-.05676.30322-.11078.45551-.16455-.15228.05383-.30438.10773-.45551.16455Z"/>
    <path class="cls-1" d="M135.38582,8.58527c.13037-.03296.25977-.06921.39075-.10004-.13104.03088-.26038.06708-.39075.10004Z"/>
    <path class="cls-1" d="M131.5533,9.89533c.12756-.05591.25732-.10687.3858-.16058-.1286.05371-.25818.10468-.3858.16058Z"/>
    <path class="cls-1" d="M134.03956,8.96662c.15308-.04816.30603-.09644.46014-.14166-.15417.04517-.30701.09344-.46014.14166Z"/>
    <path class="cls-1" d="M152.73494,54.00172c-.34021.17816-.6842.34882-1.03241.51086.34833-.16211.69208-.33264,1.03241-.51086Z"/>
    <path class="cls-1" d="M158.91249,49.40626c-.28345.29059-.57581.57086-.87244.84613.29669-.27533.58893-.55542.87244-.84613Z"/>
    <path class="cls-1" d="M156.2599,51.76881c-.4696.35883-.9538.69678-1.44702,1.02014.49329-.32343.97742-.66132,1.44702-1.02014Z"/>
    <path class="cls-1" d="M157.62263,50.64094c-.41632.36865-.84326.72388-1.28235,1.06232.43915-.3385.86603-.69366,1.28235-1.06232Z"/>
    <path class="cls-1" d="M154.36299,53.06763c-.35114.21948-.70544.43341-1.06696.63483.36157-.20148.71576-.41528,1.06696-.63483Z"/>
    <path class="cls-1" d="M162.59517,44.5492c-.30389.52899-.63007,1.04016-.96924,1.53986.33917-.49969.66528-1.0108.96924-1.53986Z"/>
    <path class="cls-1" d="M160.12886,48.05781c-.24915.29688-.50458.58734-.7666.87085.26208-.28363.51733-.57385.7666-.87085Z"/>
    <path class="cls-1" d="M146.97298,8.49042c.12402.02924.24799.06085.37195.09204-.12402-.03125-.2478-.06281-.37195-.09204Z"/>
    <path class="cls-1" d="M145.02492,8.11457c.08917.01355.17822.02374.26746.03827-.08923-.01453-.17822-.02472-.26746-.03827Z"/>
    <path class="cls-1" d="M161.28883,46.55872c-.23969.33557-.48395.66687-.73901.9881.25513-.32135.49933-.6524.73901-.9881Z"/>
    <path class="cls-1" d="M137.99415,56.56592c-.58154-.08203-1.16339-.17749-1.74469-.30292.58118.12543,1.16302.22089,1.74469.30292Z"/>
    <path class="cls-1" d="M139.9648,46.24445c-.14557-.01489-.2912-.03253-.43689-.05212.14587.01959.2912.03723.43689.05212Z"/>
    <path class="cls-1" d="M141.23945,46.32044c-.12555-.00128-.25177-.01025-.37769-.01495.12604.00476.25208.01367.37769.01495Z"/>
    <path class="cls-1" d="M144.11354,18.5987c.13153.02637.26306.04913.39453.07941-.13153-.03027-.26294-.05304-.39453-.07941Z"/>
    <path class="cls-1" d="M138.63911,46.04163c-.13177-.02643-.26355-.04926-.39526-.07959.13177.0304.26337.05316.39526.07959Z"/>
    <path class="cls-1" d="M147.66652,44.83094c-.44519.224-.90491.41833-1.37189.59393.4671-.17566.92664-.36987,1.37189-.59393Z"/>
    <path class="cls-1" d="M144.31618,45.99799c-.31921.06885-.64117.1261-.96576.17255.32483-.04651.6463-.10364.96576-.17255Z"/>
    <path class="cls-1" d="M142.79982,46.24207c-.34991.03589-.7027.05341-1.0567.06262.35419-.00922.7066-.02673,1.0567-.06262Z"/>
    <path class="cls-1" d="M145.84065,45.57661c-.32495.10962-.6524.21155-.98535.2973.33313-.08582.66028-.18756.98535-.2973Z"/>
    <path class="cls-1" d="M141.51564,18.32093c.12402.00122.24872.01013.37305.01471-.12439-.00458-.2489-.01349-.37305-.01471Z"/>
    <path class="cls-1" d="M142.78798,18.39625c.14587.01489.29175.03265.43774.05225-.14612-.01959-.29175-.03735-.43774-.05225Z"/>
    <path class="cls-2" d="M107.87312,60.39289l-.31799.17993-.23273.1322c-1.3418.76099-2.54022,1.46912-3.66449,2.16492.14075.64575.27423,1.29474.38751,1.95239,4.18201,24.27814-12.1673,47.43195-36.44543,51.61395h-.00024l.00006.00049c-3.31519.57123-5.53979,3.7218-4.96875,7.03705.57111,3.31543,3.72156,5.54004,7.03687,4.96912.00006,0,.00018,0,.00024-.00006,30.89844-5.32239,51.70624-34.79028,46.38391-65.68872-.34308-1.99158-.79028-3.93927-1.32788-5.84271-.94769.43701-1.98767.91858-2.97705,1.41565-1.21606.61237-2.48071,1.28668-3.87402,2.0658Z"/>
    <path class="cls-2" d="M99.54689,44.09266l.2049-.09015.13074-.05762c1.33459-.59924,2.5603-1.17908,3.72046-1.75922,1.00751-.51178,1.9826-1.04584,3.12958-1.67798.07916-.04419.15991-.09204.23901-.13635-12.17975-17.79431-34.00488-27.89459-56.60822-24.0011-3.31537.57111-5.5401,3.72174-4.96906,7.03711.57111,3.31537,3.72156,5.54004,7.03693,4.96912.00006,0,.00018-.00006.00024-.00006,17.09198-2.94415,33.61682,4.29633,43.36688,17.30676.01251-.005.0257-.01001.03815-.01501,1.19214-.48035,2.44427-1.01215,3.71039-1.5755Z"/>
    <path class="cls-4" d="M141.51716,7.8379c.55469.0033,1.11127.02411,1.66919.0658-.55792-.04169-1.11432-.06244-1.66919-.0658Z"/>
    <path class="cls-4" d="M128.72877,26.33521c.12854-.27228.26331-.53992.40753-.80054-.14429.26074-.27893.5282-.40753.80054Z"/>
    <path class="cls-4" d="M143.49019,7.93183c.51099.04462,1.02277.10516,1.53473.18274-.51202-.07758-1.02368-.13812-1.53473-.18274Z"/>
    <path class="cls-4" d="M140.19856,7.86689c.28955-.01398.57983-.02216.87073-.02582-.29095.0036-.58118.01184-.87073.02582Z"/>
    <path class="cls-4" d="M146.29463,45.42487c-.14929.05609-.30273.10071-.45398.15173.15137-.05115.3045-.09552.45398-.15173Z"/>
    <path class="cls-4" d="M147.34492,8.58247c.57281.14423,1.14502.30225,1.71466.48993-.56976-.18774-1.14185-.3457-1.71466-.48993Z"/>
    <path class="cls-4" d="M161.62593,46.08906c-.10858.15997-.22504.31281-.3371.46967.11206-.15698.22845-.30963.3371-.46967Z"/>
    <path class="cls-4" d="M137.80665,18.79066c.27496-.07288.55267-.13599.83234-.19214-.27979.05615-.55731.1192-.83234.19214Z"/>
    <path class="cls-4" d="M141.37855,18.3155c-.37292,0-.74414.01569-1.1131.04535.41394-.03326.83136-.04407,1.25018-.03992-.04559-.00043-.09155-.00543-.13708-.00543Z"/>
    <path class="cls-4" d="M145.29237,8.15284c.56055.09125,1.12091.20587,1.6806.33759-.55981-.13177-1.12006-.24628-1.6806-.33759Z"/>
    <path class="cls-4" d="M139.03065,18.52076c.36993-.06329.74304-.11279,1.11902-.14618-.37604.03345-.74902.08289-1.11902.14618Z"/>
    <path class="cls-4" d="M131.9391,9.73475c.27655-.1156.55457-.22797.83533-.33344-.28082.10553-.55872.21783-.83533.33344Z"/>
    <path class="cls-4" d="M130.06148,24.07618c.23804-.32654.48651-.64362.74976-.94574-.26331.30219-.51172.61908-.74976.94574Z"/>
    <path class="cls-4" d="M144.8553,45.87391c-.17841.0459-.3587.08521-.53912.12408.18066-.03894.36047-.07806.53912-.12408Z"/>
    <path class="cls-4" d="M133.22993,9.23676c.26819-.09479.53809-.18469.80963-.27014-.27161.08545-.54144.17535-.80963.27014Z"/>
    <path class="cls-4" d="M160.54982,47.54682c-.13745.17316-.27924.3421-.42096.51099.14185-.16901.28345-.33771.42096-.51099Z"/>
    <path class="cls-4" d="M130.36696,10.45008c.39001-.19623.78638-.37952,1.18634-.55475-.40002.17523-.79633.35852-1.18634.55475Z"/>
    <path class="cls-4" d="M129.35914,25.1468c.15149-.25409.31146-.50116.47748-.74304-.16602.24207-.32593.48883-.47748.74304Z"/>
    <path class="cls-4" d="M134.49971,8.82496c.2934-.08606.58923-.16455.88611-.23969-.29688.07513-.59265.15363-.88611.23969Z"/>
    <path class="cls-4" d="M137.20729,8.19385c.3866-.06696.77527-.12488,1.16595-.17334-.39069.0484-.77936.10632-1.16595.17334Z"/>
    <path class="cls-4" d="M130.83992,23.09504c.27417-.31262.56451-.60834.86359-.89349-.29913.28522-.58936.58075-.86359.89349Z"/>
    <path class="cls-4" d="M138.81178,7.97419c.29694-.03137.5946-.05902.89349-.07953-.29889.02045-.59644.04816-.89349.07953Z"/>
    <path class="cls-4" d="M135.77656,8.48524c.42657-.10046.85577-.19165,1.28839-.26929-.43262.07764-.86182.16882-1.28839.26929Z"/>
    <path class="cls-4" d="M141.88869,18.33564c.29919.01099.59894.02997.89929.06061-.30048-.03064-.59998-.04962-.89929-.06061Z"/>
    <path class="cls-4" d="M138.24385,45.96204c-.42188-.09735-.84326-.20923-1.26239-.34772.41919.13855.84052.25037,1.26239.34772Z"/>
    <path class="cls-4" d="M146.04848,56.35779c-.17145.03345-.34534.05676-.51764.08655.17242-.02979.34613-.0531.51764-.08655Z"/>
    <path class="cls-4" d="M144.28548,56.63074c-.21497.02582-.43103.04462-.64703.0647.21606-.02014.43195-.03888.64703-.0647Z"/>
    <path class="cls-4" d="M144.50807,18.67811c.42163.09723.8429.20892,1.26184.34735-.41901-.13849-.84015-.25012-1.26184-.34735Z"/>
    <path class="cls-4" d="M139.52791,46.19233c-.2962-.03986-.59259-.09125-.88879-.1507.29639.05945.59241.11084.88879.1507Z"/>
    <path class="cls-4" d="M147.97267,55.89875c-.0661.01855-.13055.04205-.19684.06006.06628-.01801.13074-.0415.19684-.06006Z"/>
    <path class="cls-4" d="M134.02028,20.41468c.32587-.20105.65869-.39044.99963-.56421-.341.17383-.67371.3631-.99963.56421Z"/>
    <path class="cls-4" d="M140.25892,56.7826c-.03784-.00177-.07538-.00104-.11316-.00299.03784.00195.07532.00122.11316.00299Z"/>
    <path class="cls-4" d="M150.00496,55.22523c-.18134.06836-.36084.14105-.54376.2052.18304-.06415.36237-.13678.54376-.2052Z"/>
    <path class="cls-4" d="M140.86177,46.30549c-.2984-.01117-.59735-.03033-.89697-.06104.29968.0307.59845.04987.89697.06104Z"/>
    <path class="cls-4" d="M138.41853,56.62244c-.14142-.01746-.28284-.03656-.42438-.05652.14154.01996.28284.03906.42438.05652Z"/>
    <path class="cls-4" d="M141.38215,46.32606c.12128,0,.24005-.01819.36096-.02136-.16809.00439-.3349.01746-.50366.01575.04749.00049.09528.00562.1427.00562Z"/>
    <path class="cls-4" d="M142.48134,56.77607c-.22406.01007-.44818.01862-.6731.02246.22504-.00385.44891-.01239.6731-.02246Z"/>
    <path class="cls-4" d="M132.99116,21.11872c.22858-.17072.46277-.33307.70093-.48932-.23822.15631-.47223.31848-.70093.48932Z"/>
    <path class="cls-4" d="M158.04005,50.25239c-.13934.12933-.27527.26263-.41742.38855.14221-.12592.27802-.25916.41742-.38855Z"/>
    <path class="cls-4" d="M143.35042,46.17054c-.18311.02618-.36609.05255-.5506.07153.18475-.01892.36725-.04529.5506-.07153Z"/>
    <path class="cls-4" d="M131.98878,21.9444c.21478-.19385.43384-.38208.65955-.56171-.22577.17975-.4447.36786-.65955.56171Z"/>
    <path class="cls-4" d="M156.34028,51.70325c-.02734.02106-.05292.04456-.08038.06555.02747-.02094.05298-.04443.08038-.06555Z"/>
    <path class="cls-4" d="M136.5674,19.18275c.27112-.09949.54474-.19238.8219-.27509-.27728.08276-.55072.17554-.8219.27509Z"/>
    <path class="cls-4" d="M159.36226,48.92866c-.14856.16077-.29724.32123-.44977.4776.15259-.15649.30115-.31671.44977-.4776Z"/>
    <path class="cls-4" d="M143.22572,18.44849c.29596.03967.59186.09088.88782.15021-.29602-.05927-.59174-.11053-.88782-.15021Z"/>
    <path class="cls-4" d="M135.09205,19.8108c.36572-.18372.74115-.34766,1.12177-.49896-.38062.15131-.75598.31525-1.12177.49896Z"/>
    <path class="cls-4" d="M151.70253,54.51258c-.19562.09106-.39154.18127-.58948.26715.19812-.08594.39374-.17603.58948-.26715Z"/>
    <path class="cls-4" d="M128.08119,27.92597c.13885-.41998.30054-.82593.47424-1.22339-.17377.39752-.33539.80334-.47424,1.22339Z"/>
    <path class="cls-4" d="M154.81288,52.78895c-.14758.09674-.30029.18512-.44989.27869.14966-.09363.30225-.18182.44989-.27869Z"/>
    <path class="cls-4" d="M153.29603,53.70246c-.18524.10321-.37329.20087-.5611.29926.18793-.09845.37573-.19604.5611-.29926Z"/>
    <path id="circle111038" class="cls-2" d="M150.97901,35.50072c1.72646-5.22169-1.10746-10.85218-6.3289-12.57796-5.21961-1.72571-10.85042,1.10757-12.57652,6.32818-1.72506,5.22108,1.10822,10.85189,6.3289,12.57796,5.22082,1.72474,10.85164-1.10854,12.57652-6.32818Z"/>
  </g>
  <path class="cls-3" d="M141.3744,7.84107c-13.51923,0-24.4787,10.95947-24.4787,24.4787,0,2.39899.3512,4.71478.99445,6.90564-4.06873,2.76971-8.30731,5.28119-12.70679,7.48938-3.63074,1.79688-7.36322,3.3634-11.16101,4.7486-7.03412-11.45483-19.67407-19.09692-34.10175-19.09692-7.98718,0-15.4209,2.35065-21.66541,6.38452-3.62451-3.28223-9.22198-9.35559-11.37579-11.89923-.86133-1.02887-1.67841-2.09308-2.45673-3.18512,2.05939-2.2215,3.43091-5.11151,3.70966-8.36359C28.79451,7.54658,23.04475.7234,15.29085.06397c-.42285-.03613-.8396-.05298-1.255-.05121C6.81264.02973.67818,5.57203.05189,12.90534c-.33087,3.87555.93964,7.52032,3.26331,10.27783.84149.99854,1.82294,1.88385,2.9162,2.61621,1.92114,1.29572,4.19043,2.13129,6.66205,2.34503,2.94073.25006,5.74493-.42487,8.13226-1.77783.97314.98193,1.9104,1.99921,2.80237,3.0564,2.09412,2.48596,7.1579,8.85791,9.75916,12.8504-8.36829,7.33044-13.65979,18.08716-13.65979,30.08624,0,17.43872,11.16541,32.2619,26.73413,37.73285-.20532,4.41095-.94177,9.9845-1.61877,13.13947-1.31482,5.96381-3.25159,11.76764-5.75726,17.3291-5.25354.97498-9.67084,4.99841-10.87897,10.54828-.7962,3.6897-.02936,7.35126,1.86481,10.29547,1.17102,1.82025,2.77484,3.36249,4.69708,4.46301,1.1842.68933,2.49622,1.1972,3.90247,1.50714,7.38251,1.59729,14.66412-3.08734,16.26556-10.46429.30621-1.41168.38214-2.81244.25146-4.1795-.20459-2.20557-.94904-4.30066-2.12012-6.12097-.93054-1.44653-2.133-2.71484-3.55072-3.72925.04102-6.11646,1.08191-12.14642,2.00085-18.20044.73932-4.87067,2.70605-9.84277,3.91229-12.55975,1.40997.15045,2.84045.23206,4.29034.23206,22.08765,0,39.99323-17.90552,39.99323-39.99316,0-4.08258-.6153-8.02081-1.75208-11.73102,3.49762-2.2691,7.10773-4.36621,10.84772-6.229,4.55127-2.26276,9.25769-4.1969,14.07483-5.81775,4.48364,5.03918,11.01434,8.21667,18.2901,8.21667,13.51923,0,24.47876-10.95953,24.47876-24.47876s-10.95953-24.4787-24.47876-24.4787ZM22.12086,14.78962c-.38123,4.43317-4.28058,7.71899-8.71417,7.3432-.26978-.02301-.54083-.05957-.80298-.10846-4.02045-.75342-6.89313-4.44183-6.54016-8.60571.37872-4.43604,4.27814-7.72192,8.71417-7.34314.87756.07501,1.70892.28711,2.4743.61871,3.11414,1.32568,5.16974,4.53961,4.86884,8.0954ZM49.41048,155.66785c-.91516,4.21674-5.07666,6.90149-9.29675,5.98102-1.18945-.25806-2.25018-.76727-3.14978-1.46399-2.28839-1.78906-3.49017-4.79688-2.8313-7.83289.45856-2.11267,1.72461-3.83606,3.40485-4.91705,1.68549-1.08429,3.78461-1.52582,5.89197-1.06396,2.10931.45331,3.83606,1.72516,4.92035,3.41058.47266.73468.82483,1.5545,1.03351,2.41345.26166,1.10706.28534,2.28345.02716,3.47284ZM59.92061,97.5528c-13.89154,0-25.19318-11.30164-25.19318-25.19318s11.30164-25.19318,25.19318-25.19318,25.19324,11.30164,25.19324,25.19318-11.30164,25.19318-25.19324,25.19318ZM141.3744,46.29853c-7.70789,0-13.9787-6.27081-13.9787-13.97876s6.27081-13.9787,13.9787-13.9787,13.97876,6.27081,13.97876,13.9787-6.27087,13.97876-13.97876,13.97876Z"/>
  <path class="cls-2" d="M14.57928,8.39495c-3.15267-.26945-5.9266,2.06808-6.19564,5.22091-.26932,3.1526,2.06816,5.92649,5.22088,6.19569,3.15259.26904,5.92652-2.06845,6.19568-5.22092.26932-3.15284-2.06817-5.92677-5.22092-6.19568Z"/>
</svg>