<?xml version="1.0" encoding="UTF-8"?>
<svg id="Capa_1" xmlns="http://www.w3.org/2000/svg" version="1.1" viewBox="0 0 363.5 180.9">
  <!-- Generator: Adobe Illustrator 29.0.1, SVG Export Plug-In . SVG Version: 2.1.0 Build 192)  -->
  <defs>
    <style>
      .st0 {
        fill: #fff;
      }

      .st1 {
        fill: #e10600;
      }
    </style>
  </defs>
  <g>
    <path class="st0" d="M131.9,141.2h-14.1v-9.6h39v9.6h-14.1v39.7h-10.9v-39.7h.1Z"/>
    <path class="st0" d="M162.4,131.6h19.1c2.5,0,4.9.2,7.1.7,2.2.5,4.2,1.3,5.9,2.4,1.7,1.1,3,2.7,4,4.6,1,1.9,1.5,4.3,1.5,7.2s-.9,6.4-2.7,8.9c-1.8,2.4-4.5,4-7.9,4.6l12.5,20.8h-13l-10.3-19.7h-5.4v19.7h-10.9v-49.2h0ZM173.2,152h6.4c1,0,2,0,3.1-.1s2.1-.3,3-.6,1.6-.9,2.2-1.6c.6-.7.9-1.8.9-3.1s-.3-2.2-.8-3c-.5-.7-1.2-1.3-1.9-1.7-.8-.4-1.7-.7-2.7-.8s-2-.2-3-.2h-7.1v11.1h0Z"/>
    <path class="st0" d="M207.9,131.6h33.5v10h-22.6v9.2h21.4v10h-21.4v10h23.9v10h-34.7v-49.2h0Z"/>
  </g>
  <g>
    <path class="st0" d="M0,121.6h40.1v12H13v11h25.6v12H13v12h28.6v12H0v-59Z"/>
    <path class="st0" d="M52,121.6h17.7l25.1,41h.2v-41h13v59.1h-17l-25.8-42h-.2v42h-13v-59.1Z"/>
  </g>
  <g>
    <path class="st0" d="M252.5,121.7h17.7l25.1,41h.2v-41h13v59.1h-17l-25.8-42h-.2v42h-13v-59.1h0Z"/>
    <path class="st0" d="M331.1,166.1l-3.7,14.7h-13l16.5-59.1h16.4l16.3,59.1h-13.4l-3.9-14.7h-15.2ZM344.4,156.5l-3.2-12.5c-.9-3.5-1.8-8.4-2.7-12h-.2c-.8,3.6-1.7,8.6-2.5,12l-3.1,12.5h11.7Z"/>
  </g>
  <path class="st1" d="M238.3,0h-116.2C119.7,0,117.8,2,117.8,4.3v113.1c0,2.4,2,4.3,4.3,4.3h116.2c2.4,0,4.3-1.9,4.3-4.2V4.3C242.6,1.9,240.6,0,238.3,0ZM149,111.8h-10.8v-38.5h10.8v38.5ZM164.7,111.8h-10.8v-52.7h10.8v52.7ZM191.2,98h-22v-10.8h22v10.8ZM206.6,111.8h-10.8v-52.7h10.8v52.7ZM222.3,111.8h-10.8v-38.5h10.8v38.5Z"/>
</svg>