<?xml version="1.0" encoding="UTF-8"?>
<svg id="Layer_1" xmlns="http://www.w3.org/2000/svg" version="1.1" viewBox="0 0 618.8 172.8">
  <!-- Generator: Adobe Illustrator 29.0.1, SVG Export Plug-In . SVG Version: 2.1.0 Build 192)  -->
  <defs>
    <style>
      .st0 {
        fill: #ec7733;
      }

      .st1 {
        fill: #fff;
      }
    </style>
  </defs>
  <g>
    <path class="st1" d="M19.81,135.12c2.18,0,4.22.16,6.11.49,1.89.32,3.73.9,5.51,1.73l-1.09,5.91c-1.6-.66-3.2-1.16-4.8-1.53-1.6-.36-3.31-.55-5.13-.55-1.97,0-3.73.27-5.29.82-1.56.55-2.9,1.37-4.01,2.46-1.11,1.09-1.97,2.48-2.57,4.16-.6,1.68-.9,3.63-.9,5.85,0,4.12,1.05,7.24,3.17,9.35,2.11,2.11,5.27,3.17,9.5,3.17.87,0,1.75-.06,2.65-.19.89-.13,1.7-.3,2.43-.52v-10.75h6.88v14.84c-1.71.73-3.72,1.31-6.03,1.75-2.31.44-4.61.65-6.9.65-3.02,0-5.72-.45-8.1-1.34-2.38-.89-4.41-2.15-6.09-3.77-1.67-1.62-2.95-3.55-3.82-5.78-.87-2.24-1.31-4.72-1.31-7.45,0-2.87.44-5.5,1.34-7.89.89-2.38,2.19-4.42,3.9-6.11,1.71-1.69,3.78-3,6.22-3.93,2.44-.93,5.22-1.39,8.35-1.39h0Z"/>
    <path class="st1" d="M87.58,135.15h22.6v6.27h-14.69v9.1h14.01v6.27h-14.01v9.72h14.86v6.27h-22.77v-37.63h0Z"/>
    <path class="st1" d="M190.43,161.76c0,1.6-.33,3.07-.98,4.42-.65,1.35-1.57,2.51-2.75,3.49-1.18.98-2.61,1.74-4.28,2.29-1.67.55-3.53.82-5.56.82-1.93,0-3.86-.21-5.81-.63-1.95-.42-3.74-1.03-5.37-1.83l1.58-5.83c1.31.62,2.77,1.15,4.39,1.58,1.62.44,3.28.65,4.99.65,1.82,0,3.3-.37,4.44-1.12,1.15-.74,1.72-1.83,1.72-3.24,0-1.31-.55-2.38-1.64-3.22-1.09-.84-2.76-1.71-5.02-2.62-1.6-.65-3.02-1.34-4.25-2.05-1.24-.71-2.27-1.5-3.11-2.37-.84-.87-1.48-1.84-1.94-2.92-.45-1.07-.68-2.28-.68-3.63,0-3.34,1.14-5.92,3.41-7.72,2.27-1.8,5.32-2.7,9.13-2.7,1.96,0,3.76.18,5.4.55,1.64.36,3.22.95,4.74,1.75l-1.42,5.83c-1.27-.62-2.61-1.12-4.01-1.5-1.4-.38-2.83-.57-4.28-.57-1.6,0-2.89.3-3.87.9s-1.47,1.54-1.47,2.81c0,.58.08,1.09.25,1.53.16.44.46.84.9,1.23.44.38,1.01.76,1.72,1.14s1.61.81,2.7,1.28c1.45.62,2.84,1.27,4.17,1.96,1.33.69,2.5,1.49,3.52,2.4,1.02.91,1.84,1.96,2.45,3.16.62,1.2.93,2.58.93,4.14h0Z"/>
    <path class="st1" d="M274.45,135.15v6.27h-10.4v31.35h-7.91v-31.35h-10.39v-6.27h28.7Z"/>
    <path class="st1" d="M366.31,153.96c0,2.58-.41,5.01-1.23,7.28-.82,2.27-2,4.26-3.54,5.97-1.55,1.71-3.45,3.06-5.73,4.06-2.27,1-4.86,1.5-7.77,1.5s-5.5-.5-7.77-1.5c-2.27-1-4.19-2.35-5.75-4.06-1.56-1.71-2.75-3.7-3.54-5.97-.8-2.27-1.2-4.7-1.2-7.28s.4-4.96,1.2-7.25c.8-2.29,1.98-4.29,3.54-6,1.56-1.71,3.48-3.06,5.75-4.06,2.27-1,4.86-1.5,7.77-1.5s5.5.5,7.77,1.5c2.27,1,4.18,2.35,5.73,4.06,1.54,1.71,2.73,3.71,3.54,6s1.23,4.71,1.23,7.25ZM348.04,166.78c1.78,0,3.33-.33,4.66-.98,1.33-.65,2.43-1.55,3.33-2.7.89-1.14,1.55-2.5,1.99-4.06.44-1.56.65-3.25.65-5.07s-.22-3.51-.65-5.07c-.44-1.56-1.1-2.92-1.99-4.06-.89-1.15-2-2.05-3.33-2.7-1.33-.65-2.88-.98-4.66-.98s-3.34.33-4.66.98c-1.33.65-2.44,1.55-3.33,2.7-.89,1.15-1.55,2.5-1.99,4.06-.44,1.56-.65,3.25-.65,5.07s.22,3.51.65,5.07c.44,1.56,1.1,2.92,1.99,4.06.89,1.15,2,2.05,3.33,2.7,1.33.65,2.88.98,4.66.98h0Z"/>
    <path class="st1" d="M448.87,146.62c0,2.67-.75,4.92-2.26,6.75-1.51,1.83-3.67,3.23-6.5,4.21l12.71,15.2h-9.83l-10.9-13.73h-2.54v13.73h-7.91v-37.63h11.24c2.33,0,4.48.24,6.44.71,1.96.47,3.64,1.19,5.06,2.15,1.41.96,2.51,2.16,3.3,3.59.79,1.43,1.19,3.11,1.19,5.03h0ZM440.96,146.79c0-1.92-.75-3.31-2.26-4.18-1.51-.87-3.47-1.3-5.88-1.3h-3.28v11.75h2.37c2.71,0,4.9-.53,6.55-1.58,1.66-1.05,2.49-2.62,2.49-4.69Z"/>
  </g>
  <path class="st1" d="M120.8,32.18l16.4-19.45,8.79,8.57-18.75,17.17s-6.44-6.3-6.44-6.3Z"/>
  <g>
    <path class="st1" d="M45.27,32.31c-11.92,0-20.72,6.12-28.19,13.68h-.64l-1.41-11.77H0v78.18h18.41v-53.32c7.16-7.25,12.38-10.99,20.09-10.99,10.53,0,14.57,5.73,14.57,18.28v46.03h18.41v-48.42c0-20.14-8.14-31.67-26.22-31.67h0Z"/>
    <path class="st1" d="M146,85.08c-6.96,8.45-12.26,11.54-19.59,11.54-10.69,0-14.61-5.83-14.61-18.27v-46.03h-18.41v48.42c0,20.14,8.03,31.67,26.16,31.67,11.65,0,20.31-5.78,27.7-14.33h.64l1.41,12.42h15.13V32.31h-18.41v52.77h0Z"/>
    <path class="st1" d="M230.02,97.73c-14.92,0-25.31-10.02-25.31-25.28s10.54-25.48,25.84-25.48c6.84,0,12.8,2.58,18.85,7.35l8.49-11.26c-6.33-6.12-15.98-10.75-28.2-10.75-23.31,0-43.39,14.63-43.39,40.14s18.18,39.94,42.15,39.94c10.85,0,22.01-3.95,30.86-11.59l-7.52-11.48c-5.88,4.54-13.08,8.4-21.78,8.4h0Z"/>
    <path class="st1" d="M338.79,97.63c-7.76,0-13.82-3.89-13.82-14.16V0h-43.76v14.34h25.66v68.2c0,18.86,9.55,29.86,27.5,29.86,8.98,0,14.22-1.56,21.78-4.37l-4.21-13.38c-4.93,2.06-9.17,2.98-13.15,2.98Z"/>
    <path class="st1" d="M417.39,32.31c-20.44,0-39.35,15.04-39.35,39.94s18.38,40.14,41.76,40.14c11.21,0,21.77-3.7,29.91-9.02l-6.15-11.13c-6.84,3.9-13.42,6.24-21.41,6.24-14.19,0-24.24-6.77-26.21-20.9h56.09c.31-1.96.79-5.45.79-9.03,0-21.13-12.63-36.25-35.43-36.25ZM417.93,46.12c10.85,0,17.7,6.32,18.87,18.77h-40.54c2.41-12.29,11.01-18.77,21.67-18.77Z"/>
  </g>
  <path class="st1" d="M501.4,60.84c-6.36,6.36-6.36,16.67,0,23.02,6.36,6.36,16.67,6.36,23.02,0,6.36-6.36,6.36-16.66,0-23.02-6.36-6.36-16.67-6.36-23.02,0Z"/>
  <path class="st1" d="M495.91,148.7c-2.93-.63-5.81,1.22-6.44,4.15-.63,2.92,1.22,5.81,4.15,6.44,2.92.63,5.81-1.22,6.44-4.15.63-2.92-1.22-5.81-4.15-6.44Z"/>
  <g>
    <path class="st1" d="M593.14,56.77c-.57-.03-1.15-.09-1.73-.16.58.07,1.15.13,1.73.16Z"/>
    <path class="st1" d="M594.38,56.8c.14,0,.28-.01.42-.01-.51,0-1.03,0-1.55-.02.38.02.76.03,1.13.03Z"/>
    <path class="st1" d="M581.55,26.69c.05-.12.12-.24.17-.37-.06.12-.12.24-.17.37Z"/>
    <path class="st1" d="M600.77,55.95c-.57.15-1.15.29-1.73.4.58-.11,1.16-.24,1.73-.4Z"/>
    <path class="st1" d="M582.13,25.52c.07-.13.15-.26.22-.39-.08.13-.15.26-.22.39Z"/>
    <path class="st1" d="M602.45,55.42c-.49.17-.99.33-1.49.47.5-.14,1-.3,1.49-.47Z"/>
    <path class="st1" d="M596.63,56.68c-.38.04-.77.06-1.16.08.39-.02.77-.04,1.16-.08Z"/>
    <path class="st1" d="M598.52,56.43c-.41.07-.83.14-1.25.19.42-.05.83-.11,1.25-.19Z"/>
    <path class="st1" d="M582.83,24.39c.07-.11.15-.22.22-.33-.08.11-.15.22-.22.33Z"/>
    <path class="st1" d="M590.38,18.9c.14-.04.28-.08.42-.12-.14.04-.28.08-.42.12Z"/>
    <path class="st1" d="M589.21,19.3c.12-.05.24-.09.35-.13-.12.04-.24.08-.35.13Z"/>
    <path class="st1" d="M588.01,19.84s.05-.03.07-.04c-.02.01-.05.03-.07.04Z"/>
    <path class="st1" d="M604.11,54.77c-.37.16-.74.3-1.11.45.37-.14.74-.29,1.11-.45Z"/>
    <path class="st1" d="M591.63,18.59c.13-.03.26-.06.39-.08-.13.02-.26.05-.39.08Z"/>
    <path class="st1" d="M583.8,23.12s.02-.02.03-.04c-.01.01-.02.02-.03.04Z"/>
    <path class="st1" d="M584.7,22.19c.09-.09.19-.17.29-.26-.1.09-.19.17-.29.26Z"/>
    <path class="st1" d="M586.68,20.62c.11-.07.22-.15.33-.21-.11.07-.22.14-.33.21Z"/>
    <path class="st1" d="M585.64,21.37c.11-.09.23-.18.34-.26-.12.09-.23.17-.34.26Z"/>
    <path class="st1" d="M596.18,7.89c.1,0,.2.02.3.03-.1,0-.2-.02-.3-.03Z"/>
    <path class="st1" d="M592.7,7.88c.16-.01.33-.02.49-.03-.16,0-.33.02-.49.03Z"/>
    <path class="st1" d="M593.14,18.36s.08-.01.12-.01c-.04,0-.08.01-.12.01Z"/>
    <path class="st1" d="M591.37,8.01c.15-.02.29-.03.44-.05-.15.02-.29.03-.44.05Z"/>
    <path class="st1" d="M594.36,7.82c-.1,0-.2,0-.3,0,.15,0,.3,0,.45,0-.05,0-.1,0-.15,0Z"/>
    <path class="st1" d="M590.06,8.2s.1-.01.14-.02c-.05,0-.1.01-.14.02Z"/>
    <path class="st1" d="M585.77,9.39c.15-.06.3-.11.46-.16-.15.05-.3.11-.46.16Z"/>
    <path class="st1" d="M588.38,8.57c.13-.03.26-.07.39-.1-.13.03-.26.07-.39.1Z"/>
    <path class="st1" d="M584.55,9.88c.13-.06.26-.11.39-.16-.13.05-.26.1-.39.16Z"/>
    <path class="st1" d="M587.03,8.95c.15-.05.31-.1.46-.14-.15.05-.31.09-.46.14Z"/>
    <path class="st1" d="M605.73,53.99c-.34.18-.68.35-1.03.51.35-.16.69-.33,1.03-.51Z"/>
    <path class="st1" d="M611.91,49.39c-.28.29-.58.57-.87.85.3-.28.59-.56.87-.85Z"/>
    <path class="st1" d="M609.25,51.76c-.47.36-.95.7-1.45,1.02.49-.32.98-.66,1.45-1.02Z"/>
    <path class="st1" d="M610.62,50.63c-.42.37-.84.72-1.28,1.06.44-.34.87-.69,1.28-1.06Z"/>
    <path class="st1" d="M607.36,53.05c-.35.22-.71.43-1.07.63.36-.2.72-.42,1.07-.63Z"/>
    <path class="st1" d="M615.59,44.54c-.3.53-.63,1.04-.97,1.54.34-.5.67-1.01.97-1.54Z"/>
    <path class="st1" d="M613.12,48.05c-.25.3-.5.59-.77.87.26-.28.52-.57.77-.87Z"/>
    <path class="st1" d="M599.97,8.48c.12.03.25.06.37.09-.12-.03-.25-.06-.37-.09Z"/>
    <path class="st1" d="M598.02,8.1c.09.01.18.02.27.04-.09-.01-.18-.02-.27-.04Z"/>
    <path class="st1" d="M614.28,46.55c-.24.34-.48.67-.74.99.26-.32.5-.65.74-.99Z"/>
    <path class="st1" d="M590.99,56.55c-.58-.08-1.16-.18-1.74-.3.58.13,1.16.22,1.74.3Z"/>
    <path class="st1" d="M592.96,46.23c-.15-.01-.29-.03-.44-.05.15.02.29.04.44.05Z"/>
    <path class="st1" d="M594.23,46.31c-.13,0-.25-.01-.38-.01.13,0,.25.01.38.01Z"/>
    <path class="st1" d="M597.11,18.59c.13.03.26.05.39.08-.13-.03-.26-.05-.39-.08Z"/>
    <path class="st1" d="M591.63,46.03c-.13-.03-.26-.05-.4-.08.13.03.26.05.4.08Z"/>
    <path class="st1" d="M600.66,44.82c-.45.22-.9.42-1.37.59.47-.18.93-.37,1.37-.59Z"/>
    <path class="st1" d="M597.31,45.99c-.32.07-.64.13-.97.17.32-.05.65-.1.97-.17Z"/>
    <path class="st1" d="M595.79,46.23c-.35.04-.7.05-1.06.06.35,0,.71-.03,1.06-.06Z"/>
    <path class="st1" d="M546.12,54.65c-.06-.12-.13-.24-.19-.37.06.12.13.24.19.37Z"/>
    <path class="st1" d="M598.83,45.56c-.32.11-.65.21-.99.3.33-.09.66-.19.99-.3Z"/>
    <path class="st1" d="M594.51,18.31c.12,0,.25.01.37.01-.12,0-.25-.01-.37-.01Z"/>
    <path class="st1" d="M595.78,18.38c.15.01.29.03.44.05-.15-.02-.29-.04-.44-.05Z"/>
    <path class="st1" d="M547.21,57.2c-.11-.28-.24-.55-.35-.82.11.28.24.54.35.82Z"/>
    <path class="st1" d="M560.87,60.38l-.32.18-.23.13c-1.34.76-2.54,1.47-3.66,2.16.14.65.27,1.29.39,1.95,4.18,24.28-12.17,47.43-36.45,51.61h0,0c-3.32.57-5.54,3.72-4.97,7.04.57,3.32,3.72,5.54,7.04,4.97,0,0,0,0,0,0,30.9-5.32,51.71-34.79,46.38-65.69-.34-1.99-.79-3.94-1.33-5.84-.95.44-1.99.92-2.98,1.42-1.22.61-2.48,1.29-3.87,2.07Z"/>
    <path class="st1" d="M552.54,44.08l.2-.09.13-.06c1.33-.6,2.56-1.18,3.72-1.76,1.01-.51,1.98-1.05,3.13-1.68.08-.04.16-.09.24-.14-12.18-17.79-34-27.89-56.61-24-3.32.57-5.54,3.72-4.97,7.04.57,3.32,3.72,5.54,7.04,4.97,0,0,0,0,0,0,17.09-2.94,33.62,4.3,43.37,17.31.01,0,.03-.01.04-.02,1.19-.48,2.44-1.01,3.71-1.58Z"/>
    <path class="st1" d="M594.51,7.83c.55,0,1.11.02,1.67.07-.56-.04-1.11-.06-1.67-.07Z"/>
    <path class="st1" d="M581.72,26.32c.13-.27.26-.54.41-.8-.14.26-.28.53-.41.8Z"/>
    <path class="st1" d="M596.48,7.92c.51.04,1.02.11,1.53.18-.51-.08-1.02-.14-1.53-.18Z"/>
    <path class="st1" d="M593.19,7.85c.29-.01.58-.02.87-.03-.29,0-.58.01-.87.03Z"/>
    <path class="st1" d="M599.29,45.41c-.15.06-.3.1-.45.15.15-.05.3-.1.45-.15Z"/>
    <path class="st1" d="M600.34,8.57c.57.14,1.15.3,1.71.49-.57-.19-1.14-.35-1.71-.49Z"/>
    <path class="st1" d="M614.62,46.08c-.11.16-.23.31-.34.47.11-.16.23-.31.34-.47Z"/>
    <path class="st1" d="M590.8,18.78c.27-.07.55-.14.83-.19-.28.06-.56.12-.83.19Z"/>
    <path class="st1" d="M594.37,18.3c-.37,0-.74.02-1.11.05.41-.03.83-.04,1.25-.04-.05,0-.09,0-.14,0Z"/>
    <path class="st1" d="M598.29,8.14c.56.09,1.12.21,1.68.34-.56-.13-1.12-.25-1.68-.34Z"/>
    <path class="st1" d="M544.87,52.2s0,0,0-.01c0,0,0,0,0,0,0,0,0,0,0,.01Z"/>
    <path class="st1" d="M592.02,18.51c.37-.06.74-.11,1.12-.15-.38.03-.75.08-1.12.15Z"/>
    <path class="st1" d="M584.93,9.72c.28-.12.55-.23.84-.33-.28.11-.56.22-.84.33Z"/>
    <path class="st1" d="M583.05,24.06c.24-.33.49-.64.75-.95-.26.3-.51.62-.75.95Z"/>
    <path class="st1" d="M597.85,45.86c-.18.05-.36.09-.54.12.18-.04.36-.08.54-.12Z"/>
    <path class="st1" d="M586.22,9.22c.27-.09.54-.18.81-.27-.27.09-.54.18-.81.27Z"/>
    <path class="st1" d="M613.54,47.53c-.14.17-.28.34-.42.51.14-.17.28-.34.42-.51Z"/>
    <path class="st1" d="M583.36,10.44c.39-.2.79-.38,1.19-.55-.4.18-.8.36-1.19.55Z"/>
    <path class="st1" d="M582.35,25.13c.15-.25.31-.5.48-.74-.17.24-.33.49-.48.74Z"/>
    <path class="st1" d="M587.49,8.81c.29-.09.59-.16.89-.24-.3.08-.59.15-.89.24Z"/>
    <path class="st1" d="M590.2,8.18c.39-.07.78-.12,1.17-.17-.39.05-.78.11-1.17.17Z"/>
    <path class="st1" d="M583.83,23.08c.27-.31.56-.61.86-.89-.3.29-.59.58-.86.89Z"/>
    <path class="st1" d="M591.8,7.96c.3-.03.59-.06.89-.08-.3.02-.6.05-.89.08Z"/>
    <path class="st1" d="M588.77,8.47c.43-.1.86-.19,1.29-.27-.43.08-.86.17-1.29.27Z"/>
    <path class="st1" d="M594.88,18.32c.3.01.6.03.9.06-.3-.03-.6-.05-.9-.06Z"/>
    <path class="st1" d="M591.24,45.95c-.42-.1-.84-.21-1.26-.35.42.14.84.25,1.26.35Z"/>
    <path class="st1" d="M599.04,56.35c-.17.03-.35.06-.52.09.17-.03.35-.05.52-.09Z"/>
    <path class="st1" d="M597.28,56.62c-.21.03-.43.04-.65.06.22-.02.43-.04.65-.06Z"/>
    <path class="st1" d="M597.5,18.67c.42.1.84.21,1.26.35-.42-.14-.84-.25-1.26-.35Z"/>
    <path class="st1" d="M592.52,46.18c-.3-.04-.59-.09-.89-.15.3.06.59.11.89.15Z"/>
    <path class="st1" d="M600.97,55.89c-.07.02-.13.04-.2.06.07-.02.13-.04.2-.06Z"/>
    <path class="st1" d="M587.01,20.4c.33-.2.66-.39,1-.56-.34.17-.67.36-1,.56Z"/>
    <path class="st1" d="M593.25,56.77s-.08,0-.11,0c.04,0,.08,0,.11,0Z"/>
    <path class="st1" d="M603,55.21c-.18.07-.36.14-.54.21.18-.06.36-.14.54-.21Z"/>
    <path class="st1" d="M593.85,46.29c-.3-.01-.6-.03-.9-.06.3.03.6.05.9.06Z"/>
    <path class="st1" d="M591.41,56.61c-.14-.02-.28-.04-.42-.06.14.02.28.04.42.06Z"/>
    <path class="st1" d="M594.37,46.31c.12,0,.24-.02.36-.02-.17,0-.33.02-.5.02.05,0,.1,0,.14,0h0Z"/>
    <path class="st1" d="M595.47,56.76c-.22.01-.45.02-.67.02.23,0,.45-.01.67-.02Z"/>
    <path class="st1" d="M585.98,21.11c.23-.17.46-.33.7-.49-.24.16-.47.32-.7.49Z"/>
    <path class="st1" d="M611.03,50.24c-.14.13-.28.26-.42.39.14-.13.28-.26.42-.39Z"/>
    <path class="st1" d="M596.34,46.16c-.18.03-.37.05-.55.07.18-.02.37-.05.55-.07Z"/>
    <path class="st1" d="M584.98,21.93c.21-.19.43-.38.66-.56-.23.18-.44.37-.66.56Z"/>
    <path class="st1" d="M609.33,51.69s-.05.04-.08.07c.03-.02.05-.04.08-.07Z"/>
    <path class="st1" d="M589.56,19.17c.27-.1.54-.19.82-.28-.28.08-.55.18-.82.28Z"/>
    <path class="st1" d="M612.35,48.92c-.15.16-.3.32-.45.48.15-.16.3-.32.45-.48Z"/>
    <path class="st1" d="M596.22,18.44c.3.04.59.09.89.15-.3-.06-.59-.11-.89-.15Z"/>
    <path class="st1" d="M588.08,19.8c.37-.18.74-.35,1.12-.5-.38.15-.76.32-1.12.5Z"/>
    <path class="st1" d="M604.7,54.5c-.2.09-.39.18-.59.27.2-.09.39-.18.59-.27Z"/>
    <path class="st1" d="M581.07,27.91c.14-.42.3-.83.47-1.22-.17.4-.34.8-.47,1.22Z"/>
    <path class="st1" d="M607.81,52.78c-.15.1-.3.19-.45.28.15-.09.3-.18.45-.28Z"/>
    <path class="st1" d="M606.29,53.69c-.19.1-.37.2-.56.3.19-.1.38-.2.56-.3Z"/>
    <path id="circle111038" class="st1" d="M603.97,35.49c1.73-5.22-1.11-10.85-6.33-12.58-5.22-1.73-10.85,1.11-12.58,6.33-1.73,5.22,1.11,10.85,6.33,12.58,5.22,1.72,10.85-1.11,12.58-6.33Z"/>
  </g>
  <path class="st1" d="M467.57,8.38c-3.15-.27-5.93,2.07-6.2,5.22-.27,3.15,2.07,5.93,5.22,6.2,3.15.27,5.93-2.07,6.2-5.22.27-3.15-2.07-5.93-5.22-6.2Z"/>
  <path class="st0" d="M594.37,7.83c-13.52,0-24.48,10.96-24.48,24.48,0,2.4.35,4.71.99,6.91-4.07,2.77-8.31,5.28-12.71,7.49-3.63,1.8-7.36,3.36-11.16,4.75-7.03-11.45-19.67-19.1-34.1-19.1-7.99,0-15.42,2.35-21.67,6.38-3.62-3.28-9.22-9.36-11.38-11.9-.86-1.03-1.68-2.09-2.46-3.19,2.06-2.22,3.43-5.11,3.71-8.36.66-7.76-5.09-14.58-12.84-15.24-.42-.04-.84-.05-1.26-.05-7.22.02-13.36,5.56-13.98,12.89-.33,3.88.94,7.52,3.26,10.28.84,1,1.82,1.88,2.92,2.62,1.92,1.3,4.19,2.13,6.66,2.35,2.94.25,5.74-.42,8.13-1.78.97.98,1.91,2,2.8,3.06,2.09,2.49,7.16,8.86,9.76,12.85-8.37,7.33-13.66,18.09-13.66,30.09,0,17.44,11.17,32.26,26.73,37.73-.21,4.41-.94,9.98-1.62,13.14-1.31,5.96-3.25,11.77-5.76,17.33-5.25.97-9.67,5-10.88,10.55-.8,3.69-.03,7.35,1.86,10.3,1.17,1.82,2.77,3.36,4.7,4.46,1.18.69,2.5,1.2,3.9,1.51,7.38,1.6,14.66-3.09,16.27-10.46.31-1.41.38-2.81.25-4.18-.2-2.21-.95-4.3-2.12-6.12-.93-1.45-2.13-2.71-3.55-3.73.04-6.12,1.08-12.15,2-18.2.74-4.87,2.71-9.84,3.91-12.56,1.41.15,2.84.23,4.29.23,22.09,0,39.99-17.91,39.99-39.99,0-4.08-.62-8.02-1.75-11.73,3.5-2.27,7.11-4.37,10.85-6.23,4.55-2.26,9.26-4.2,14.07-5.82,4.48,5.04,11.01,8.22,18.29,8.22,13.52,0,24.48-10.96,24.48-24.48s-10.96-24.48-24.48-24.48h0ZM475.11,14.78c-.38,4.43-4.28,7.72-8.71,7.34-.27-.02-.54-.06-.8-.11-4.02-.75-6.89-4.44-6.54-8.61.38-4.44,4.28-7.72,8.71-7.34.88.08,1.71.29,2.47.62,3.11,1.33,5.17,4.54,4.87,8.1ZM502.4,155.66c-.92,4.22-5.08,6.9-9.3,5.98-1.19-.26-2.25-.77-3.15-1.46-2.29-1.79-3.49-4.8-2.83-7.83.46-2.11,1.72-3.84,3.4-4.92,1.69-1.08,3.78-1.53,5.89-1.06,2.11.45,3.84,1.73,4.92,3.41.47.73.82,1.55,1.03,2.41.26,1.11.29,2.28.03,3.47ZM512.91,97.54c-13.89,0-25.19-11.3-25.19-25.19s11.3-25.19,25.19-25.19,25.19,11.3,25.19,25.19-11.3,25.19-25.19,25.19ZM594.37,46.29c-7.71,0-13.98-6.27-13.98-13.98s6.27-13.98,13.98-13.98,13.98,6.27,13.98,13.98-6.27,13.98-13.98,13.98Z"/>
</svg>