<svg width="300" height="600" viewBox="0 0 300 600" fill="none" xmlns="http://www.w3.org/2000/svg">
  <!-- Teléfono Frame -->
  <rect x="10" y="10" width="280" height="580" rx="40" ry="40" fill="#1a1a1a" stroke="#333" stroke-width="2"/>
  
  <!-- Pantalla -->
  <rect x="25" y="50" width="250" height="500" rx="20" ry="20" fill="#0f172a"/>
  
  <!-- Status Bar -->
  <rect x="35" y="65" width="230" height="20" fill="#1e293b"/>
  <text x="40" y="78" font-family="Arial, sans-serif" font-size="10" fill="#94a3b8">9:41</text>
  <circle cx="245" cy="75" r="3" fill="#22c55e"/>
  <rect x="250" y="72" width="10" height="6" rx="1" fill="#94a3b8"/>
  
  <!-- Header -->
  <rect x="35" y="95" width="230" height="50" fill="#1e40af"/>
  <text x="45" y="115" font-family="Arial, sans-serif" font-size="12" font-weight="bold" fill="white">NEXDRILL</text>
  <text x="45" y="130" font-family="Arial, sans-serif" font-size="10" fill="#bfdbfe">Sistema de Gestión</text>
  
  <!-- Navigation Tabs -->
  <rect x="35" y="155" width="230" height="40" fill="#334155"/>
  <rect x="45" y="165" width="60" height="20" rx="10" fill="#3b82f6"/>
  <text x="65" y="177" font-family="Arial, sans-serif" font-size="9" fill="white">Facturas</text>
  <text x="125" y="177" font-family="Arial, sans-serif" font-size="9" fill="#94a3b8">Costos</text>
  <text x="175" y="177" font-family="Arial, sans-serif" font-size="9" fill="#94a3b8">Reportes</text>
  
  <!-- Main Content Area -->
  <rect x="35" y="205" width="230" height="320" fill="#0f172a"/>
  
  <!-- Factura Card 1 -->
  <rect x="45" y="220" width="210" height="60" rx="8" fill="#1e293b" stroke="#374151" stroke-width="1"/>
  <text x="55" y="235" font-family="Arial, sans-serif" font-size="10" font-weight="bold" fill="white">Factura #001234</text>
  <text x="55" y="250" font-family="Arial, sans-serif" font-size="9" fill="#94a3b8">Cliente: Minera Los Andes</text>
  <text x="55" y="265" font-family="Arial, sans-serif" font-size="9" fill="#94a3b8">Fecha: 15/12/2023</text>
  <rect x="200" y="235" width="45" height="15" rx="3" fill="#22c55e"/>
  <text x="210" y="245" font-family="Arial, sans-serif" font-size="8" fill="white">Pagada</text>
  
  <!-- Factura Card 2 -->
  <rect x="45" y="290" width="210" height="60" rx="8" fill="#1e293b" stroke="#374151" stroke-width="1"/>
  <text x="55" y="305" font-family="Arial, sans-serif" font-size="10" font-weight="bold" fill="white">Factura #001235</text>
  <text x="55" y="320" font-family="Arial, sans-serif" font-size="9" fill="#94a3b8">Cliente: Codelco Norte</text>
  <text x="55" y="335" font-family="Arial, sans-serif" font-size="9" fill="#94a3b8">Fecha: 18/12/2023</text>
  <rect x="200" y="305" width="45" height="15" rx="3" fill="#f59e0b"/>
  <text x="208" y="315" font-family="Arial, sans-serif" font-size="8" fill="white">Pendiente</text>
  
  <!-- Factura Card 3 -->
  <rect x="45" y="360" width="210" height="60" rx="8" fill="#1e293b" stroke="#374151" stroke-width="1"/>
  <text x="55" y="375" font-family="Arial, sans-serif" font-size="10" font-weight="bold" fill="white">Factura #001236</text>
  <text x="55" y="390" font-family="Arial, sans-serif" font-size="9" fill="#94a3b8">Cliente: Antofagasta Minerals</text>
  <text x="55" y="405" font-family="Arial, sans-serif" font-size="9" fill="#94a3b8">Fecha: 20/12/2023</text>
  <rect x="200" y="375" width="45" height="15" rx="3" fill="#22c55e"/>
  <text x="210" y="385" font-family="Arial, sans-serif" font-size="8" fill="white">Pagada</text>
  
  <!-- Stats Section -->
  <rect x="45" y="440" width="210" height="70" rx="8" fill="#1e293b" stroke="#374151" stroke-width="1"/>
  <text x="55" y="455" font-family="Arial, sans-serif" font-size="10" font-weight="bold" fill="white">Resumen Mensual</text>
  
  <!-- Stats Grid -->
  <text x="55" y="475" font-family="Arial, sans-serif" font-size="9" fill="#94a3b8">Facturas emitidas:</text>
  <text x="180" y="475" font-family="Arial, sans-serif" font-size="9" font-weight="bold" fill="#22c55e">24</text>
  
  <text x="55" y="490" font-family="Arial, sans-serif" font-size="9" fill="#94a3b8">Total facturado:</text>
  <text x="160" y="490" font-family="Arial, sans-serif" font-size="9" font-weight="bold" fill="#22c55e">$45.2M</text>
  
  <!-- Bottom Navigation -->
  <rect x="35" y="535" width="230" height="50" fill="#1e293b"/>
  <circle cx="75" cy="560" r="8" fill="#3b82f6"/>
  <circle cx="150" cy="560" r="8" fill="#6b7280"/>
  <circle cx="225" cy="560" r="8" fill="#6b7280"/>
  
  <!-- Home Button -->
  <rect x="125" y="570" width="50" height="4" rx="2" fill="#374151"/>
</svg>